<svg width="61" height="66" viewBox="0 0 61 66" fill="none" xmlns="http://www.w3.org/2000/svg">
<path d="M57.4738 62.5667L57.4803 62.5604L57.4867 62.5539C59.1623 60.8712 60 58.7812 60 56.3496V9.73008C60 7.29846 59.1623 5.20847 57.4867 3.52576L57.4801 3.51908L57.4733 3.51252C55.7517 1.84765 53.6806 1 51.3088 1H44.1304C41.6548 1 39.5435 1.86826 37.8675 3.60489C36.1446 5.27713 35.2684 7.33788 35.2684 9.73008V20.126H25.7316L25.7316 9.73008C25.7316 7.29846 24.8939 5.20847 23.2184 3.52576C21.543 1.84324 19.462 1 17.0405 1H9.86207C7.33432 1 5.18948 1.86506 3.5071 3.61166C1.84076 5.2881 1 7.34709 1 9.73008V56.3496C1 58.7479 1.88065 60.813 3.61218 62.4875C5.33931 64.1577 7.44112 65 9.86207 65H17.2114C19.5725 65 21.6185 64.1862 23.2909 62.5667L23.2974 62.5604L23.3038 62.5539C24.9794 60.8712 25.8171 58.7812 25.8171 56.3496V43.8021H29.6027C32.0078 43.8021 34.0891 43.1656 35.7769 41.8339C37.5172 40.4607 38.3793 38.5677 38.3793 36.2673C38.3793 35.9352 38.287 35.5074 37.9331 35.1774C37.5924 34.8597 37.1749 34.7892 36.8666 34.7892C36.5582 34.7892 36.1407 34.8597 35.8 35.1774C35.4462 35.5074 35.3538 35.9352 35.3538 36.2673C35.3538 37.7397 34.8474 38.8181 33.8648 39.6177C32.7599 40.4172 31.3597 40.8458 29.6027 40.8458H24.4753C24.1099 40.8458 23.6497 40.9295 23.2805 41.2738C22.8982 41.6303 22.7916 42.098 22.7916 42.4833V56.3496C22.7916 58.0202 22.2542 59.356 21.1984 60.4301C20.1436 61.5032 18.8387 62.0437 17.2114 62.0437H9.86207C8.16841 62.0437 6.80013 61.4962 5.68839 60.4144C4.58127 59.3371 4.02548 58.0062 4.02548 56.3496V9.73008C4.02548 8.13448 4.57644 6.79267 5.70288 5.65089C6.81743 4.52116 8.18116 3.9563 9.86207 3.9563H17.0405C18.6515 3.9563 19.9872 4.51222 21.1064 5.64298C22.176 6.78014 22.7061 8.12443 22.7061 9.73008V21.6838C22.7061 22.0476 22.836 22.4733 23.2207 22.7723C23.5575 23.034 23.9461 23.0823 24.2189 23.0823H36.8666C37.1464 23.0823 37.5426 23.0184 37.869 22.714C38.2086 22.3973 38.2939 21.9894 38.2939 21.6838V9.73008C38.2939 8.13448 38.8448 6.79267 39.9712 5.65089C41.0858 4.52116 42.4495 3.9563 44.1304 3.9563H51.3088C52.9199 3.9563 54.2555 4.51222 55.3748 5.64299C56.4444 6.78015 56.9745 8.12444 56.9745 9.73008V56.3496C56.9745 58.0161 56.4398 59.3494 55.3891 60.4222C54.2728 61.5047 52.9327 62.0437 51.3088 62.0437H43.9595C42.2659 62.0437 40.8976 61.4962 39.7858 60.4144C38.6787 59.3371 38.1229 58.0062 38.1229 56.3496V45.4319C38.1229 45.0998 38.0306 44.6719 37.6768 44.3419C37.3361 44.0242 36.9186 43.9537 36.6102 43.9537C36.3018 43.9537 35.8843 44.0242 35.5436 44.3419C35.1898 44.6719 35.0974 45.0998 35.0974 45.4319V56.3496C35.0974 58.7934 35.9727 60.8874 37.7096 62.5672C39.3927 64.1968 41.5004 65 43.9595 65H51.3088C53.7191 65 55.7959 64.1915 57.4738 62.5667Z" fill="black" stroke="black" stroke-width="2"/>
</svg>
