<svg width="218" height="67" viewBox="0 0 218 67" fill="none" xmlns="http://www.w3.org/2000/svg">
<path d="M57.4738 62.5667L57.4803 62.5604L57.4867 62.5539C59.1623 60.8712 60 58.7812 60 56.3496V9.73008C60 7.29846 59.1623 5.20847 57.4867 3.52576L57.4801 3.51908L57.4733 3.51252C55.7517 1.84765 53.6806 1 51.3088 1H44.1304C41.6548 1 39.5435 1.86826 37.8675 3.60489C36.1446 5.27713 35.2684 7.33788 35.2684 9.73008V20.126H25.7316L25.7316 9.73008C25.7316 7.29846 24.8939 5.20847 23.2184 3.52576C21.543 1.84324 19.462 1 17.0405 1H9.86207C7.33432 1 5.18948 1.86506 3.5071 3.61166C1.84076 5.2881 1 7.34709 1 9.73008V56.3496C1 58.7479 1.88065 60.813 3.61218 62.4875C5.33931 64.1577 7.44112 65 9.86207 65H17.2114C19.5725 65 21.6185 64.1862 23.2909 62.5667L23.2974 62.5604L23.3038 62.5539C24.9794 60.8712 25.8171 58.7812 25.8171 56.3496V43.8021H29.6027C32.0078 43.8021 34.0891 43.1656 35.7769 41.8339C37.5172 40.4607 38.3793 38.5677 38.3793 36.2673C38.3793 35.9352 38.287 35.5074 37.9331 35.1774C37.5924 34.8597 37.1749 34.7892 36.8666 34.7892C36.5582 34.7892 36.1407 34.8597 35.8 35.1774C35.4462 35.5074 35.3538 35.9352 35.3538 36.2673C35.3538 37.7397 34.8474 38.8181 33.8648 39.6177C32.7599 40.4172 31.3597 40.8458 29.6027 40.8458H24.4753C24.1099 40.8458 23.6497 40.9295 23.2805 41.2738C22.8982 41.6303 22.7916 42.098 22.7916 42.4833V56.3496C22.7916 58.0202 22.2542 59.356 21.1984 60.4301C20.1436 61.5032 18.8387 62.0437 17.2114 62.0437H9.86207C8.16841 62.0437 6.80013 61.4962 5.68839 60.4144C4.58127 59.3371 4.02548 58.0062 4.02548 56.3496V9.73008C4.02548 8.13448 4.57644 6.79267 5.70288 5.65089C6.81743 4.52116 8.18116 3.9563 9.86207 3.9563H17.0405C18.6515 3.9563 19.9872 4.51222 21.1064 5.64298C22.176 6.78014 22.7061 8.12443 22.7061 9.73008V21.6838C22.7061 22.0476 22.836 22.4733 23.2207 22.7723C23.5575 23.034 23.9461 23.0823 24.2189 23.0823H36.8666C37.1464 23.0823 37.5426 23.0184 37.869 22.714C38.2086 22.3973 38.2939 21.9894 38.2939 21.6838V9.73008C38.2939 8.13448 38.8448 6.79267 39.9712 5.65089C41.0858 4.52116 42.4495 3.9563 44.1304 3.9563H51.3088C52.9199 3.9563 54.2555 4.51222 55.3748 5.64299C56.4444 6.78015 56.9745 8.12444 56.9745 9.73008V56.3496C56.9745 58.0161 56.4398 59.3494 55.3891 60.4222C54.2728 61.5047 52.9327 62.0437 51.3088 62.0437H43.9595C42.2659 62.0437 40.8976 61.4962 39.7858 60.4144C38.6787 59.3371 38.1229 58.0062 38.1229 56.3496V45.4319C38.1229 45.0998 38.0306 44.6719 37.6768 44.3419C37.3361 44.0242 36.9186 43.9537 36.6102 43.9537C36.3018 43.9537 35.8843 44.0242 35.5436 44.3419C35.1898 44.6719 35.0974 45.0998 35.0974 45.4319V56.3496C35.0974 58.7934 35.9727 60.8874 37.7096 62.5672C39.3927 64.1968 41.5004 65 43.9595 65H51.3088C53.7191 65 55.7959 64.1915 57.4738 62.5667Z" fill="black" stroke="black" stroke-width="2"/>
<mask id="path-2-outside-1_602_25" maskUnits="userSpaceOnUse" x="64" y="36" width="155" height="30" fill="black">
<rect fill="white" x="64" y="36" width="155" height="30"/>
<path d="M69.6445 51.896C69.4738 51.896 69.3885 51.9813 69.3885 52.152V62.52C69.3885 62.84 69.2072 63 68.8445 63H66.7645C66.5938 63 66.4765 62.968 66.4125 62.904C66.3485 62.8187 66.3165 62.7013 66.3165 62.552V39.704C66.3165 39.4053 66.4445 39.256 66.7005 39.256H69.0045C69.2605 39.256 69.3885 39.3947 69.3885 39.672V49.08C69.3885 49.336 69.5058 49.464 69.7405 49.464H80.2365C80.4498 49.464 80.5565 49.336 80.5565 49.08V39.64C80.5565 39.384 80.6738 39.256 80.9085 39.256H83.2445C83.5005 39.256 83.6285 39.4053 83.6285 39.704V62.552C83.6285 62.7013 83.5965 62.8187 83.5325 62.904C83.4685 62.968 83.3512 63 83.1805 63H81.1005C80.7378 63 80.5565 62.84 80.5565 62.52V52.184C80.5565 51.992 80.4605 51.896 80.2685 51.896H69.6445ZM101.208 63.32C99.1171 63.32 97.3038 62.8507 95.7678 61.912C94.2531 60.9733 93.0904 59.608 92.2798 57.816C91.4691 56.0027 91.0638 53.8053 91.0638 51.224C91.0638 48.6213 91.4798 46.4027 92.3118 44.568C93.1438 42.7333 94.3171 41.336 95.8318 40.376C97.3464 39.416 99.1491 38.936 101.24 38.936C103.33 38.936 105.122 39.416 106.616 40.376C108.13 41.336 109.293 42.7227 110.104 44.536C110.936 46.3493 111.352 48.568 111.352 51.192C111.352 53.7733 110.946 55.9707 110.136 57.784C109.325 59.576 108.152 60.952 106.616 61.912C105.101 62.8507 103.298 63.32 101.208 63.32ZM101.272 60.984C103.576 60.984 105.293 60.1947 106.424 58.616C107.576 57.016 108.152 54.552 108.152 51.224C108.152 47.832 107.565 45.3253 106.392 43.704C105.24 42.0827 103.522 41.272 101.24 41.272C98.9358 41.272 97.1971 42.0933 96.0238 43.736C94.8504 45.3573 94.2638 47.8533 94.2638 51.224C94.2638 54.5307 94.8504 56.984 96.0238 58.584C97.1971 60.184 98.9464 60.984 101.272 60.984ZM119.213 63C118.915 63 118.765 62.84 118.765 62.52V39.704C118.765 39.4053 118.893 39.256 119.149 39.256H122.221C122.392 39.256 122.509 39.2773 122.573 39.32C122.659 39.3627 122.723 39.4587 122.765 39.608L129.869 57.944C129.955 58.136 130.04 58.232 130.125 58.232C130.211 58.2107 130.296 58.104 130.381 57.912L137.485 39.672C137.571 39.3947 137.731 39.256 137.965 39.256H141.197C141.432 39.256 141.549 39.3947 141.549 39.672V62.52C141.549 62.84 141.389 63 141.069 63H138.957C138.787 63 138.659 62.968 138.573 62.904C138.509 62.84 138.477 62.7333 138.477 62.584V44.28C138.477 44.1733 138.456 44.1307 138.413 44.152C138.371 44.152 138.339 44.1947 138.317 44.28L131.277 62.584C131.171 62.8613 130.968 63 130.669 63H129.133C128.792 63 128.579 62.872 128.493 62.616L121.549 44.472C121.507 44.3653 121.464 44.3227 121.421 44.344C121.4 44.344 121.389 44.3867 121.389 44.472V62.584C121.389 62.7333 121.357 62.84 121.293 62.904C121.229 62.968 121.112 63 120.941 63H119.213ZM166.869 39.256C167.019 39.256 167.115 39.2987 167.157 39.384C167.221 39.4693 167.211 39.576 167.125 39.704L159.509 52.44C159.424 52.568 159.371 52.696 159.349 52.824C159.328 52.952 159.317 53.176 159.317 53.496V62.456C159.317 62.8187 159.115 63 158.709 63H156.789C156.576 63 156.437 62.9573 156.373 62.872C156.309 62.7867 156.277 62.6693 156.277 62.52V53.624C156.277 53.4107 156.256 53.2507 156.213 53.144C156.171 53.0373 156.107 52.9093 156.021 52.76L148.309 39.768C148.224 39.6187 148.203 39.5013 148.245 39.416C148.309 39.3093 148.448 39.256 148.661 39.256H150.965C151.157 39.256 151.296 39.288 151.381 39.352C151.467 39.3947 151.552 39.4907 151.637 39.64L157.589 49.88C157.717 50.1147 157.835 50.2427 157.941 50.264C158.048 50.264 158.165 50.1573 158.293 49.944L164.213 39.64C164.299 39.4693 164.384 39.3627 164.469 39.32C164.555 39.2773 164.693 39.256 164.885 39.256H166.869ZM190.799 62.392C190.863 62.5413 190.852 62.68 190.767 62.808C190.703 62.936 190.596 63 190.447 63H188.111C187.876 63 187.706 62.872 187.599 62.616L183.471 52.536C183.364 52.3013 183.108 52.184 182.703 52.184H177.295C177.146 52.184 177.039 52.216 176.975 52.28C176.932 52.344 176.911 52.4293 176.911 52.536V62.488C176.911 62.8293 176.73 63 176.367 63H174.287C174.116 63 173.999 62.968 173.935 62.904C173.871 62.8187 173.839 62.712 173.839 62.584V39.704C173.839 39.4053 173.967 39.256 174.223 39.256H183.151C185.668 39.256 187.62 39.7787 189.007 40.824C190.415 41.848 191.119 43.3733 191.119 45.4C191.119 46.616 190.884 47.6507 190.415 48.504C189.946 49.336 189.348 50.008 188.623 50.52C187.919 51.0107 187.194 51.3733 186.447 51.608C186.276 51.6293 186.234 51.736 186.319 51.928L190.799 62.392ZM182.255 49.944C184.132 49.944 185.54 49.6027 186.479 48.92C187.439 48.2373 187.919 47.16 187.919 45.688C187.919 44.2587 187.492 43.2027 186.639 42.52C185.807 41.8373 184.591 41.496 182.991 41.496H177.359C177.06 41.496 176.911 41.6133 176.911 41.848V49.528C176.911 49.8053 177.007 49.944 177.199 49.944H182.255ZM196.298 63C196.17 63 196.074 62.9573 196.01 62.872C195.967 62.7653 195.967 62.6267 196.01 62.456L204.298 39.704C204.362 39.5547 204.436 39.448 204.522 39.384C204.607 39.2987 204.746 39.256 204.938 39.256H207.434C207.818 39.256 208.063 39.416 208.17 39.736L216.362 62.456C216.404 62.584 216.394 62.712 216.33 62.84C216.287 62.9467 216.191 63 216.042 63H213.77C213.514 63 213.343 62.8933 213.258 62.68L211.05 56.472C211.007 56.3867 210.964 56.3227 210.922 56.28C210.879 56.2373 210.794 56.216 210.666 56.216H201.354C201.162 56.216 201.034 56.3013 200.97 56.472L198.698 62.712C198.676 62.7973 198.623 62.872 198.538 62.936C198.474 62.9787 198.367 63 198.218 63H196.298ZM209.834 53.784C210.09 53.784 210.175 53.6453 210.09 53.368L206.25 42.84C206.164 42.648 206.079 42.552 205.994 42.552C205.93 42.552 205.866 42.648 205.802 42.84L201.898 53.432C201.791 53.6667 201.855 53.784 202.09 53.784H209.834Z"/>
</mask>
<path d="M69.6445 51.896C69.4738 51.896 69.3885 51.9813 69.3885 52.152V62.52C69.3885 62.84 69.2072 63 68.8445 63H66.7645C66.5938 63 66.4765 62.968 66.4125 62.904C66.3485 62.8187 66.3165 62.7013 66.3165 62.552V39.704C66.3165 39.4053 66.4445 39.256 66.7005 39.256H69.0045C69.2605 39.256 69.3885 39.3947 69.3885 39.672V49.08C69.3885 49.336 69.5058 49.464 69.7405 49.464H80.2365C80.4498 49.464 80.5565 49.336 80.5565 49.08V39.64C80.5565 39.384 80.6738 39.256 80.9085 39.256H83.2445C83.5005 39.256 83.6285 39.4053 83.6285 39.704V62.552C83.6285 62.7013 83.5965 62.8187 83.5325 62.904C83.4685 62.968 83.3512 63 83.1805 63H81.1005C80.7378 63 80.5565 62.84 80.5565 62.52V52.184C80.5565 51.992 80.4605 51.896 80.2685 51.896H69.6445ZM101.208 63.32C99.1171 63.32 97.3038 62.8507 95.7678 61.912C94.2531 60.9733 93.0904 59.608 92.2798 57.816C91.4691 56.0027 91.0638 53.8053 91.0638 51.224C91.0638 48.6213 91.4798 46.4027 92.3118 44.568C93.1438 42.7333 94.3171 41.336 95.8318 40.376C97.3464 39.416 99.1491 38.936 101.24 38.936C103.33 38.936 105.122 39.416 106.616 40.376C108.13 41.336 109.293 42.7227 110.104 44.536C110.936 46.3493 111.352 48.568 111.352 51.192C111.352 53.7733 110.946 55.9707 110.136 57.784C109.325 59.576 108.152 60.952 106.616 61.912C105.101 62.8507 103.298 63.32 101.208 63.32ZM101.272 60.984C103.576 60.984 105.293 60.1947 106.424 58.616C107.576 57.016 108.152 54.552 108.152 51.224C108.152 47.832 107.565 45.3253 106.392 43.704C105.24 42.0827 103.522 41.272 101.24 41.272C98.9358 41.272 97.1971 42.0933 96.0238 43.736C94.8504 45.3573 94.2638 47.8533 94.2638 51.224C94.2638 54.5307 94.8504 56.984 96.0238 58.584C97.1971 60.184 98.9464 60.984 101.272 60.984ZM119.213 63C118.915 63 118.765 62.84 118.765 62.52V39.704C118.765 39.4053 118.893 39.256 119.149 39.256H122.221C122.392 39.256 122.509 39.2773 122.573 39.32C122.659 39.3627 122.723 39.4587 122.765 39.608L129.869 57.944C129.955 58.136 130.04 58.232 130.125 58.232C130.211 58.2107 130.296 58.104 130.381 57.912L137.485 39.672C137.571 39.3947 137.731 39.256 137.965 39.256H141.197C141.432 39.256 141.549 39.3947 141.549 39.672V62.52C141.549 62.84 141.389 63 141.069 63H138.957C138.787 63 138.659 62.968 138.573 62.904C138.509 62.84 138.477 62.7333 138.477 62.584V44.28C138.477 44.1733 138.456 44.1307 138.413 44.152C138.371 44.152 138.339 44.1947 138.317 44.28L131.277 62.584C131.171 62.8613 130.968 63 130.669 63H129.133C128.792 63 128.579 62.872 128.493 62.616L121.549 44.472C121.507 44.3653 121.464 44.3227 121.421 44.344C121.4 44.344 121.389 44.3867 121.389 44.472V62.584C121.389 62.7333 121.357 62.84 121.293 62.904C121.229 62.968 121.112 63 120.941 63H119.213ZM166.869 39.256C167.019 39.256 167.115 39.2987 167.157 39.384C167.221 39.4693 167.211 39.576 167.125 39.704L159.509 52.44C159.424 52.568 159.371 52.696 159.349 52.824C159.328 52.952 159.317 53.176 159.317 53.496V62.456C159.317 62.8187 159.115 63 158.709 63H156.789C156.576 63 156.437 62.9573 156.373 62.872C156.309 62.7867 156.277 62.6693 156.277 62.52V53.624C156.277 53.4107 156.256 53.2507 156.213 53.144C156.171 53.0373 156.107 52.9093 156.021 52.76L148.309 39.768C148.224 39.6187 148.203 39.5013 148.245 39.416C148.309 39.3093 148.448 39.256 148.661 39.256H150.965C151.157 39.256 151.296 39.288 151.381 39.352C151.467 39.3947 151.552 39.4907 151.637 39.64L157.589 49.88C157.717 50.1147 157.835 50.2427 157.941 50.264C158.048 50.264 158.165 50.1573 158.293 49.944L164.213 39.64C164.299 39.4693 164.384 39.3627 164.469 39.32C164.555 39.2773 164.693 39.256 164.885 39.256H166.869ZM190.799 62.392C190.863 62.5413 190.852 62.68 190.767 62.808C190.703 62.936 190.596 63 190.447 63H188.111C187.876 63 187.706 62.872 187.599 62.616L183.471 52.536C183.364 52.3013 183.108 52.184 182.703 52.184H177.295C177.146 52.184 177.039 52.216 176.975 52.28C176.932 52.344 176.911 52.4293 176.911 52.536V62.488C176.911 62.8293 176.73 63 176.367 63H174.287C174.116 63 173.999 62.968 173.935 62.904C173.871 62.8187 173.839 62.712 173.839 62.584V39.704C173.839 39.4053 173.967 39.256 174.223 39.256H183.151C185.668 39.256 187.62 39.7787 189.007 40.824C190.415 41.848 191.119 43.3733 191.119 45.4C191.119 46.616 190.884 47.6507 190.415 48.504C189.946 49.336 189.348 50.008 188.623 50.52C187.919 51.0107 187.194 51.3733 186.447 51.608C186.276 51.6293 186.234 51.736 186.319 51.928L190.799 62.392ZM182.255 49.944C184.132 49.944 185.54 49.6027 186.479 48.92C187.439 48.2373 187.919 47.16 187.919 45.688C187.919 44.2587 187.492 43.2027 186.639 42.52C185.807 41.8373 184.591 41.496 182.991 41.496H177.359C177.06 41.496 176.911 41.6133 176.911 41.848V49.528C176.911 49.8053 177.007 49.944 177.199 49.944H182.255ZM196.298 63C196.17 63 196.074 62.9573 196.01 62.872C195.967 62.7653 195.967 62.6267 196.01 62.456L204.298 39.704C204.362 39.5547 204.436 39.448 204.522 39.384C204.607 39.2987 204.746 39.256 204.938 39.256H207.434C207.818 39.256 208.063 39.416 208.17 39.736L216.362 62.456C216.404 62.584 216.394 62.712 216.33 62.84C216.287 62.9467 216.191 63 216.042 63H213.77C213.514 63 213.343 62.8933 213.258 62.68L211.05 56.472C211.007 56.3867 210.964 56.3227 210.922 56.28C210.879 56.2373 210.794 56.216 210.666 56.216H201.354C201.162 56.216 201.034 56.3013 200.97 56.472L198.698 62.712C198.676 62.7973 198.623 62.872 198.538 62.936C198.474 62.9787 198.367 63 198.218 63H196.298ZM209.834 53.784C210.09 53.784 210.175 53.6453 210.09 53.368L206.25 42.84C206.164 42.648 206.079 42.552 205.994 42.552C205.93 42.552 205.866 42.648 205.802 42.84L201.898 53.432C201.791 53.6667 201.855 53.784 202.09 53.784H209.834Z" fill="#FFAC1C"/>
<path d="M66.4125 62.904L64.8125 64.104L64.8978 64.2177L64.9983 64.3182L66.4125 62.904ZM83.5325 62.904L84.9467 64.3182L85.0472 64.2177L85.1325 64.104L83.5325 62.904ZM69.6445 49.896C69.2509 49.896 68.5883 49.9958 68.0383 50.5458C67.4883 51.0958 67.3885 51.7584 67.3885 52.152H71.3885C71.3885 52.375 71.3314 52.9095 70.8667 53.3742C70.402 53.8389 69.8675 53.896 69.6445 53.896V49.896ZM67.3885 52.152V62.52H71.3885V52.152H67.3885ZM67.3885 62.52C67.3885 62.3022 67.4617 61.7928 67.9293 61.3803C68.349 61.0099 68.7748 61 68.8445 61V65C69.2768 65 69.9746 64.9101 70.5757 64.3797C71.2246 63.8072 71.3885 63.0578 71.3885 62.52H67.3885ZM68.8445 61H66.7645V65H68.8445V61ZM66.7645 61C66.7914 61 66.9085 61.0011 67.0747 61.0465C67.2407 61.0917 67.5422 61.2053 67.8267 61.4898L64.9983 64.3182C65.6554 64.9753 66.483 65 66.7645 65V61ZM68.0125 61.704C68.2939 62.0792 68.3165 62.4375 68.3165 62.552H64.3165C64.3165 62.9652 64.4031 63.5581 64.8125 64.104L68.0125 61.704ZM68.3165 62.552V39.704H64.3165V62.552H68.3165ZM68.3165 39.704C68.3165 39.794 68.3038 40.2347 67.931 40.6696C67.5077 41.1635 66.9682 41.256 66.7005 41.256V37.256C66.1768 37.256 65.4453 37.4232 64.894 38.0664C64.3932 38.6507 64.3165 39.3154 64.3165 39.704H68.3165ZM66.7005 41.256H69.0045V37.256H66.7005V41.256ZM69.0045 41.256C68.7813 41.256 68.2582 41.1881 67.8229 40.7166C67.4155 40.2753 67.3885 39.8037 67.3885 39.672H71.3885C71.3885 39.263 71.2975 38.5834 70.7621 38.0034C70.1988 37.3932 69.4837 37.256 69.0045 37.256V41.256ZM67.3885 39.672V49.08H71.3885V39.672H67.3885ZM67.3885 49.08C67.3885 49.4753 67.4754 50.1448 68.0022 50.7194C68.5592 51.3271 69.268 51.464 69.7405 51.464V47.464C69.9784 47.464 70.5111 47.5369 70.9508 48.0166C71.3603 48.4632 71.3885 48.9407 71.3885 49.08H67.3885ZM69.7405 51.464H80.2365V47.464H69.7405V51.464ZM80.2365 51.464C80.757 51.464 81.4779 51.2904 82.0129 50.6484C82.4898 50.0762 82.5565 49.4365 82.5565 49.08H78.5565C78.5565 48.9795 78.5699 48.5318 78.9401 48.0876C79.3684 47.5736 79.9293 47.464 80.2365 47.464V51.464ZM82.5565 49.08V39.64H78.5565V49.08H82.5565ZM82.5565 39.64C82.5565 39.7793 82.5283 40.2568 82.1188 40.7034C81.6792 41.1831 81.1464 41.256 80.9085 41.256V37.256C80.436 37.256 79.7272 37.3929 79.1702 38.0006C78.6434 38.5752 78.5565 39.2447 78.5565 39.64H82.5565ZM80.9085 41.256H83.2445V37.256H80.9085V41.256ZM83.2445 41.256C82.9768 41.256 82.4373 41.1635 82.014 40.6696C81.6412 40.2347 81.6285 39.794 81.6285 39.704H85.6285C85.6285 39.3154 85.5518 38.6507 85.051 38.0664C84.4997 37.4232 83.7682 37.256 83.2445 37.256V41.256ZM81.6285 39.704V62.552H85.6285V39.704H81.6285ZM81.6285 62.552C81.6285 62.4375 81.6511 62.0792 81.9325 61.704L85.1325 64.104C85.5419 63.5581 85.6285 62.9652 85.6285 62.552H81.6285ZM82.1183 61.4898C82.4028 61.2053 82.7043 61.0917 82.8703 61.0465C83.0365 61.0011 83.1536 61 83.1805 61V65C83.462 65 84.2896 64.9753 84.9467 64.3182L82.1183 61.4898ZM83.1805 61H81.1005V65H83.1805V61ZM81.1005 61C81.1702 61 81.596 61.0099 82.0157 61.3803C82.4833 61.7928 82.5565 62.3022 82.5565 62.52H78.5565C78.5565 63.0578 78.7204 63.8072 79.3693 64.3797C79.9704 64.9101 80.6682 65 81.1005 65V61ZM82.5565 62.52V52.184H78.5565V62.52H82.5565ZM82.5565 52.184C82.5565 51.7797 82.4541 51.1091 81.8987 50.5538C81.3434 49.9984 80.6728 49.896 80.2685 49.896V53.896C80.0562 53.896 79.5297 53.8416 79.0703 53.3822C78.6109 52.9229 78.5565 52.3963 78.5565 52.184H82.5565ZM80.2685 49.896H69.6445V53.896H80.2685V49.896ZM95.7678 61.912L94.7142 63.6121L94.7249 63.6186L95.7678 61.912ZM92.2798 57.816L90.4539 58.6323L90.4575 58.6403L92.2798 57.816ZM92.3118 44.568L90.4903 43.742L90.4903 43.742L92.3118 44.568ZM95.8318 40.376L96.9024 42.0653L96.9024 42.0653L95.8318 40.376ZM106.616 40.376L105.534 42.0584L105.545 42.0653L106.616 40.376ZM110.104 44.536L108.278 45.3523L108.282 45.3612L108.286 45.37L110.104 44.536ZM110.136 57.784L111.958 58.6083L111.962 58.6003L110.136 57.784ZM106.616 61.912L107.669 63.612L107.676 63.608L106.616 61.912ZM106.424 58.616L104.801 57.4474L104.798 57.4514L106.424 58.616ZM106.392 43.704L104.761 44.8624L104.766 44.8695L104.772 44.8765L106.392 43.704ZM96.0238 43.736L97.644 44.9086L97.6512 44.8985L96.0238 43.736ZM96.0238 58.584L97.6366 57.4013L97.6366 57.4013L96.0238 58.584ZM101.208 61.32C99.4247 61.32 97.9848 60.923 96.8107 60.2054L94.7249 63.6186C96.6227 64.7783 98.8094 65.32 101.208 65.32V61.32ZM96.8213 60.212C95.6788 59.504 94.7667 58.461 94.102 56.9917L90.4575 58.6403C91.4142 60.755 92.8274 62.4427 94.7142 63.612L96.8213 60.212ZM94.1056 56.9997C93.4386 55.5079 93.0638 53.6047 93.0638 51.224H89.0638C89.0638 54.0059 89.4995 56.4975 90.4539 58.6323L94.1056 56.9997ZM93.0638 51.224C93.0638 48.8264 93.4479 46.9052 94.1332 45.394L90.4903 43.742C89.5116 45.9002 89.0638 48.4163 89.0638 51.224H93.0638ZM94.1332 45.394C94.8249 43.8688 95.7563 42.7917 96.9024 42.0653L94.7611 38.6867C92.8779 39.8803 91.4626 41.5978 90.4903 43.742L94.1332 45.394ZM96.9024 42.0653C98.0468 41.34 99.4642 40.936 101.24 40.936V36.936C98.834 36.936 96.6461 37.492 94.7611 38.6867L96.9024 42.0653ZM101.24 40.936C103.016 40.936 104.417 41.3403 105.534 42.0584L107.697 38.6936C105.828 37.4917 103.645 36.936 101.24 36.936V40.936ZM105.545 42.0653C106.692 42.7925 107.61 43.8577 108.278 45.3523L111.93 43.7197C110.976 41.5876 109.568 39.8795 107.686 38.6867L105.545 42.0653ZM108.286 45.37C108.966 46.853 109.352 48.7692 109.352 51.192H113.352C113.352 48.3668 112.905 45.8457 111.922 43.702L108.286 45.37ZM109.352 51.192C109.352 53.5727 108.977 55.4759 108.31 56.9677L111.962 58.6003C112.916 56.4655 113.352 53.9739 113.352 51.192H109.352ZM108.314 56.9597C107.651 58.4246 106.728 59.483 105.556 60.216L107.676 63.608C109.575 62.421 110.999 60.7274 111.958 58.6083L108.314 56.9597ZM105.562 60.212C104.415 60.9227 102.992 61.32 101.208 61.32V65.32C103.605 65.32 105.787 64.7786 107.669 63.612L105.562 60.212ZM101.272 62.984C104.084 62.984 106.47 61.9858 108.05 59.7806L104.798 57.4514C104.116 58.4036 103.068 58.984 101.272 58.984V62.984ZM108.047 59.7846C109.561 57.681 110.152 54.7114 110.152 51.224H106.152C106.152 54.3926 105.59 56.351 104.801 57.4474L108.047 59.7846ZM110.152 51.224C110.152 47.6742 109.551 44.6586 108.012 42.5315L104.772 44.8765C105.579 45.9921 106.152 47.9898 106.152 51.224H110.152ZM108.022 42.5456C106.435 40.3125 104.06 39.272 101.24 39.272V43.272C102.985 43.272 104.044 43.8528 104.761 44.8624L108.022 42.5456ZM101.24 39.272C98.395 39.272 96.0023 40.3251 94.3963 42.5735L97.6512 44.8985C98.3919 43.8615 99.4765 43.272 101.24 43.272V39.272ZM94.4035 42.5635C92.8653 44.689 92.2638 47.6922 92.2638 51.224H96.2638C96.2638 48.0144 96.8355 46.0257 97.644 44.9085L94.4035 42.5635ZM92.2638 51.224C92.2638 54.6986 92.8676 57.6622 94.4109 59.7667L97.6366 57.4013C96.8332 56.3058 96.2638 54.3627 96.2638 51.224H92.2638ZM94.4109 59.7667C96.0291 61.9733 98.4339 62.984 101.272 62.984V58.984C99.4589 58.984 98.3651 58.3947 97.6366 57.4013L94.4109 59.7667ZM122.573 39.32L121.464 40.9841L121.567 41.0532L121.679 41.1089L122.573 39.32ZM122.765 39.608L120.842 40.1574L120.867 40.2453L120.9 40.3305L122.765 39.608ZM129.869 57.944L128.004 58.6665L128.022 58.7119L128.042 58.7563L129.869 57.944ZM130.125 58.232V60.232H130.371L130.61 60.1723L130.125 58.232ZM130.381 57.912L132.209 58.7243L132.228 58.6815L132.245 58.6378L130.381 57.912ZM137.485 39.672L139.349 40.3978L139.375 40.3299L139.397 40.2602L137.485 39.672ZM138.573 62.904L137.159 64.3182L137.26 64.4187L137.373 64.504L138.573 62.904ZM138.413 44.152V46.152H138.885L139.308 45.9409L138.413 44.152ZM138.317 44.28L140.184 44.998L140.228 44.8838L140.258 44.7651L138.317 44.28ZM131.277 62.584L133.144 63.302L133.144 63.302L131.277 62.584ZM128.493 62.616L130.391 61.9835L130.377 61.942L130.361 61.9011L128.493 62.616ZM121.549 44.472L123.417 43.7571L123.412 43.7431L123.406 43.7292L121.549 44.472ZM121.421 44.344V46.344H121.893L122.316 46.1328L121.421 44.344ZM121.293 62.904L122.707 64.3182L122.707 64.3182L121.293 62.904ZM119.213 61C119.409 61 119.913 61.0589 120.339 61.5154C120.741 61.9458 120.765 62.4047 120.765 62.52H116.765C116.765 62.9553 116.864 63.6542 117.415 64.2446C117.99 64.8611 118.719 65 119.213 65V61ZM120.765 62.52V39.704H116.765V62.52H120.765ZM120.765 39.704C120.765 39.794 120.753 40.2347 120.38 40.6696C119.956 41.1635 119.417 41.256 119.149 41.256V37.256C118.626 37.256 117.894 37.4232 117.343 38.0664C116.842 38.6507 116.765 39.3154 116.765 39.704H120.765ZM119.149 41.256H122.221V37.256H119.149V41.256ZM122.221 41.256C122.233 41.256 122.177 41.2575 122.079 41.2397C122.002 41.2256 121.749 41.1744 121.464 40.9841L123.683 37.6559C123.333 37.423 122.99 37.3397 122.795 37.3043C122.58 37.2652 122.38 37.256 122.221 37.256V41.256ZM121.679 41.1089C121.023 40.7808 120.86 40.2195 120.842 40.1574L124.688 39.0586C124.585 38.6979 124.294 37.9445 123.468 37.5311L121.679 41.1089ZM120.9 40.3305L128.004 58.6665L131.734 57.2215L124.63 38.8855L120.9 40.3305ZM128.042 58.7563C128.122 58.937 128.264 59.2203 128.502 59.4887C128.732 59.7468 129.274 60.232 130.125 60.232V56.232C130.891 56.232 131.348 56.6692 131.492 56.8313C131.577 56.9265 131.628 57.0075 131.654 57.0504C131.681 57.0957 131.694 57.1256 131.697 57.1317L128.042 58.7563ZM130.61 60.1723C131.255 60.011 131.641 59.6031 131.815 59.3854C132.006 59.147 132.13 58.9025 132.209 58.7243L128.554 57.0997C128.554 57.0991 128.562 57.0799 128.581 57.0477C128.598 57.0169 128.634 56.9586 128.692 56.8866C128.78 56.7756 129.08 56.4317 129.64 56.2917L130.61 60.1723ZM132.245 58.6378L139.349 40.3978L135.622 38.9462L128.518 57.1862L132.245 58.6378ZM139.397 40.2602C139.369 40.3516 139.269 40.6204 138.979 40.8714C138.655 41.152 138.273 41.256 137.965 41.256V37.256C137.423 37.256 136.843 37.4293 136.359 37.8486C135.91 38.2382 135.687 38.715 135.574 39.0838L139.397 40.2602ZM137.965 41.256H141.197V37.256H137.965V41.256ZM141.197 41.256C140.911 41.256 140.361 41.1555 139.934 40.6519C139.562 40.2122 139.549 39.7676 139.549 39.672H143.549C143.549 39.299 143.477 38.6465 142.988 38.0681C142.445 37.4258 141.719 37.256 141.197 37.256V41.256ZM139.549 39.672V62.52H143.549V39.672H139.549ZM139.549 62.52C139.549 62.3717 139.588 61.8931 140.015 61.4658C140.442 61.0384 140.921 61 141.069 61V65C141.538 65 142.256 64.8816 142.843 64.2942C143.431 63.7069 143.549 62.9883 143.549 62.52H139.549ZM141.069 61H138.957V65H141.069V61ZM138.957 61C138.99 61 139.085 61.0024 139.218 61.0357C139.353 61.0695 139.559 61.143 139.773 61.304L137.373 64.504C137.957 64.9421 138.594 65 138.957 65V61ZM139.987 61.4898C140.238 61.7398 140.359 62.0097 140.417 62.2013C140.472 62.3856 140.477 62.5258 140.477 62.584H136.477C136.477 62.9364 136.539 63.6981 137.159 64.3182L139.987 61.4898ZM140.477 62.584V44.28H136.477V62.584H140.477ZM140.477 44.28C140.477 44.2091 140.489 43.7507 140.25 43.2736C140.107 42.9871 139.762 42.4802 139.074 42.2506C138.385 42.0211 137.805 42.2199 137.519 42.3631L139.308 45.9409C139.043 46.0734 138.481 46.2696 137.809 46.0454C137.136 45.8211 136.805 45.3275 136.672 45.0624C136.542 44.8025 136.506 44.5803 136.493 44.4948C136.478 44.3903 136.477 44.3126 136.477 44.28H140.477ZM138.413 42.152C137.606 42.152 137.046 42.5987 136.757 42.984C136.511 43.313 136.416 43.6401 136.377 43.7949L140.258 44.7651C140.24 44.8346 140.172 45.0977 139.957 45.384C139.7 45.7266 139.178 46.152 138.413 46.152V42.152ZM136.451 43.562L129.411 61.866L133.144 63.302L140.184 44.998L136.451 43.562ZM129.411 61.866C129.472 61.707 129.618 61.4494 129.916 61.2454C130.213 61.0419 130.504 61 130.669 61V65C131.133 65 131.675 64.8888 132.175 64.5466C132.676 64.2039 132.976 63.7383 133.144 63.302L129.411 61.866ZM130.669 61H129.133V65H130.669V61ZM129.133 61C129.196 61 129.447 61.0096 129.746 61.189C130.085 61.3922 130.296 61.7 130.391 61.9835L126.596 63.2485C126.776 63.788 127.136 64.2878 127.688 64.619C128.201 64.9264 128.73 65 129.133 65V61ZM130.361 61.9011L123.417 43.7571L119.681 45.1869L126.625 63.3309L130.361 61.9011ZM123.406 43.7292C123.359 43.6106 123.216 43.2623 122.899 42.9458C122.724 42.7704 122.408 42.5171 121.938 42.3997C121.424 42.2711 120.925 42.3558 120.527 42.5552L122.316 46.1328C121.938 46.3215 121.461 46.4036 120.968 46.2803C120.52 46.1682 120.225 45.9283 120.071 45.7742C119.797 45.5004 119.697 45.2267 119.692 45.2148L123.406 43.7292ZM121.421 42.344C120.63 42.344 120.084 42.7827 119.807 43.152C119.573 43.465 119.488 43.7681 119.457 43.8909C119.39 44.157 119.389 44.3884 119.389 44.472H123.389C123.389 44.4893 123.389 44.5283 123.384 44.5821C123.38 44.6294 123.37 44.7313 123.338 44.8611C123.312 44.9626 123.234 45.2497 123.007 45.552C122.738 45.9106 122.202 46.344 121.421 46.344V42.344ZM119.389 44.472V62.584H123.389V44.472H119.389ZM119.389 62.584C119.389 62.5258 119.394 62.3856 119.45 62.2013C119.507 62.0097 119.629 61.7398 119.879 61.4898L122.707 64.3182C123.328 63.6981 123.389 62.9364 123.389 62.584H119.389ZM119.879 61.4898C120.164 61.2053 120.465 61.0917 120.631 61.0465C120.797 61.0011 120.914 61 120.941 61V65C121.223 65 122.05 64.9753 122.707 64.3182L119.879 61.4898ZM120.941 61H119.213V65H120.941V61ZM167.157 39.384L165.368 40.2784L165.449 40.4397L165.557 40.584L167.157 39.384ZM167.125 39.704L165.461 38.5946L165.434 38.6354L165.409 38.6775L167.125 39.704ZM159.509 52.44L161.173 53.5494L161.201 53.5086L161.226 53.4665L159.509 52.44ZM159.349 52.824L161.322 53.1528L161.322 53.1528L159.349 52.824ZM156.373 62.872L154.773 64.072L154.773 64.072L156.373 62.872ZM156.213 53.144L158.07 52.4012L158.07 52.4012L156.213 53.144ZM156.021 52.76L157.758 51.7677L157.75 51.7534L157.741 51.7391L156.021 52.76ZM148.309 39.768L146.573 40.7603L146.581 40.7746L146.589 40.7889L148.309 39.768ZM148.245 39.416L146.53 38.387L146.491 38.4529L146.456 38.5216L148.245 39.416ZM151.381 39.352L150.181 40.952L150.326 41.0602L150.487 41.1409L151.381 39.352ZM151.637 39.64L149.901 40.6323L149.904 40.6387L149.908 40.6451L151.637 39.64ZM157.589 49.88L159.345 48.9223L159.332 48.8984L159.318 48.8749L157.589 49.88ZM157.941 50.264L157.549 52.2252L157.743 52.264H157.941V50.264ZM158.293 49.944L160.008 50.973L160.018 50.9568L160.027 50.9403L158.293 49.944ZM164.213 39.64L165.947 40.6363L165.976 40.5862L166.002 40.5344L164.213 39.64ZM164.469 39.32L165.364 41.1089L165.364 41.1088L164.469 39.32ZM166.869 41.256C166.773 41.256 166.533 41.2453 166.241 41.1156C165.911 40.9689 165.576 40.6934 165.368 40.2784L168.946 38.4896C168.396 37.3898 167.307 37.256 166.869 37.256V41.256ZM165.557 40.584C165.287 40.2235 165.163 39.7716 165.207 39.329C165.245 38.946 165.396 38.6921 165.461 38.5946L168.789 40.8134C168.94 40.5879 169.138 40.2166 169.187 39.727C169.242 39.1777 169.092 38.6299 168.757 38.184L165.557 40.584ZM165.409 38.6775L157.793 51.4135L161.226 53.4665L168.842 40.7305L165.409 38.6775ZM157.845 51.3306C157.632 51.6509 157.452 52.0412 157.376 52.4952L161.322 53.1528C161.289 53.3508 161.216 53.4851 161.173 53.5494L157.845 51.3306ZM157.376 52.4952C157.325 52.8047 157.317 53.1792 157.317 53.496H161.317C161.317 53.3556 161.32 53.2533 161.323 53.1831C161.325 53.1486 161.326 53.1281 161.327 53.1191C161.328 53.1082 161.327 53.1219 161.322 53.1528L157.376 52.4952ZM157.317 53.496V62.456H161.317V53.496H157.317ZM157.317 62.456C157.317 62.268 157.38 61.7776 157.832 61.3735C158.241 61.0073 158.655 61 158.709 61V65C159.169 65 159.887 64.902 160.499 64.3545C161.153 63.769 161.317 63.0067 161.317 62.456H157.317ZM158.709 61H156.789V65H158.709V61ZM156.789 61C156.797 61 156.925 60.9986 157.113 61.0564C157.305 61.1154 157.675 61.2738 157.973 61.672L154.773 64.072C155.136 64.5555 155.607 64.7779 155.937 64.8796C156.264 64.9801 156.568 65 156.789 65V61ZM157.973 61.672C158.255 62.0472 158.277 62.4055 158.277 62.52H154.277C154.277 62.9332 154.364 63.5261 154.773 64.072L157.973 61.672ZM158.277 62.52V53.624H154.277V62.52H158.277ZM158.277 53.624C158.277 53.3363 158.257 52.8677 158.07 52.4012L154.356 53.8868C154.325 53.8085 154.307 53.744 154.296 53.7007C154.286 53.6568 154.281 53.6248 154.279 53.6083C154.275 53.578 154.277 53.5795 154.277 53.624H158.277ZM158.07 52.4012C157.981 52.1778 157.869 51.9621 157.758 51.7677L154.285 53.7523C154.313 53.801 154.332 53.8373 154.344 53.8624C154.357 53.8883 154.36 53.8956 154.356 53.8868L158.07 52.4012ZM157.741 51.7391L150.029 38.7471L146.589 40.7889L154.301 53.7809L157.741 51.7391ZM150.046 38.7757C150.07 38.8185 150.153 38.9708 150.197 39.2102C150.244 39.4693 150.25 39.8782 150.034 40.3104L146.456 38.5216C145.939 39.5565 146.415 40.4849 146.573 40.7603L150.046 38.7757ZM149.96 40.445C149.72 40.8447 149.379 41.0614 149.115 41.1627C148.879 41.2536 148.702 41.256 148.661 41.256V37.256C148.257 37.256 147.158 37.3412 146.53 38.387L149.96 40.445ZM148.661 41.256H150.965V37.256H148.661V41.256ZM150.965 41.256C150.959 41.256 150.883 41.2563 150.764 41.2288C150.647 41.202 150.423 41.1332 150.181 40.952L152.581 37.752C151.967 37.2912 151.286 37.256 150.965 37.256V41.256ZM150.487 41.1409C150.238 41.0164 150.086 40.865 150.014 40.7847C149.94 40.7012 149.905 40.6401 149.901 40.6323L153.374 38.6477C153.229 38.3944 152.899 37.8747 152.276 37.5631L150.487 41.1409ZM149.908 40.6451L155.86 50.8851L159.318 48.8749L153.366 38.6349L149.908 40.6451ZM155.833 50.8377C155.938 51.0297 156.089 51.2743 156.299 51.5034C156.486 51.7079 156.897 52.0948 157.549 52.2252L158.333 48.3028C158.879 48.4119 159.177 48.7241 159.248 48.8005C159.34 48.9017 159.368 48.965 159.345 48.9223L155.833 50.8377ZM157.941 52.264C158.687 52.264 159.203 51.8926 159.455 51.6639C159.716 51.4265 159.894 51.1635 160.008 50.973L156.578 48.915C156.565 48.9379 156.62 48.8348 156.764 48.7041C156.898 48.582 157.302 48.264 157.941 48.264V52.264ZM160.027 50.9403L165.947 40.6363L162.479 38.6437L156.559 48.9477L160.027 50.9403ZM166.002 40.5344C166.002 40.5356 165.995 40.5493 165.981 40.5722C165.967 40.5946 165.942 40.6332 165.903 40.6814C165.837 40.7636 165.667 40.9574 165.364 41.1089L163.575 37.5311C162.871 37.8831 162.541 38.5116 162.424 38.7456L166.002 40.5344ZM165.364 41.1088C165.155 41.213 164.99 41.2412 164.941 41.2487C164.881 41.258 164.857 41.256 164.885 41.256V37.256C164.636 37.256 164.099 37.269 163.575 37.5312L165.364 41.1088ZM164.885 41.256H166.869V37.256H164.885V41.256ZM190.799 62.392L188.96 63.1792L188.961 63.1798L190.799 62.392ZM190.767 62.808L189.103 61.6986L189.034 61.8022L188.978 61.9136L190.767 62.808ZM187.599 62.616L185.748 63.374L185.753 63.3852L187.599 62.616ZM183.471 52.536L185.322 51.778L185.307 51.7429L185.292 51.7084L183.471 52.536ZM176.975 52.28L175.561 50.8658L175.421 51.0058L175.311 51.1706L176.975 52.28ZM173.935 62.904L172.335 64.104L172.42 64.2177L172.521 64.3182L173.935 62.904ZM189.007 40.824L187.803 42.421L187.817 42.4314L187.831 42.4415L189.007 40.824ZM190.415 48.504L192.157 49.4866L192.162 49.4773L192.167 49.4678L190.415 48.504ZM188.623 50.52L189.767 52.1608L189.776 52.1539L188.623 50.52ZM186.447 51.608L186.695 53.5926L186.874 53.5701L187.047 53.516L186.447 51.608ZM186.319 51.928L188.158 51.1408L188.152 51.1282L188.147 51.1157L186.319 51.928ZM186.479 48.92L185.32 47.2901L185.311 47.2963L185.303 47.3025L186.479 48.92ZM186.639 42.52L185.37 44.0661L185.38 44.074L185.39 44.0817L186.639 42.52ZM188.961 63.1798C188.887 63.0079 188.822 62.7571 188.845 62.4546C188.869 62.147 188.976 61.8888 189.103 61.6986L192.431 63.9174C192.916 63.1902 192.95 62.3329 192.637 61.6042L188.961 63.1798ZM188.978 61.9136C189.09 61.6897 189.29 61.4288 189.61 61.237C189.925 61.0482 190.232 61 190.447 61V65C190.811 65 191.247 64.9198 191.668 64.667C192.094 64.4112 192.38 64.0543 192.556 63.7024L188.978 61.9136ZM190.447 61H188.111V65H190.447V61ZM188.111 61C188.381 61 188.711 61.0822 189.007 61.304C189.281 61.5094 189.401 61.7417 189.445 61.8468L185.753 63.3852C185.903 63.7463 186.162 64.1706 186.607 64.504C187.073 64.8538 187.607 65 188.111 65V61ZM189.45 61.858L185.322 51.778L181.62 53.294L185.748 63.374L189.45 61.858ZM185.292 51.7084C184.695 50.3955 183.393 50.184 182.703 50.184V54.184C182.735 54.184 182.588 54.1919 182.366 54.0901C182.1 53.9682 181.815 53.7263 181.65 53.3636L185.292 51.7084ZM182.703 50.184H177.295V54.184H182.703V50.184ZM177.295 50.184C176.943 50.184 176.181 50.2457 175.561 50.8658L178.389 53.6942C178.139 53.9443 177.869 54.0662 177.678 54.1237C177.493 54.1789 177.353 54.184 177.295 54.184V50.184ZM175.311 51.1706C174.98 51.6675 174.911 52.1821 174.911 52.536H178.911C178.911 52.6766 178.885 53.0205 178.639 53.3894L175.311 51.1706ZM174.911 52.536V62.488H178.911V52.536H174.911ZM174.911 62.488C174.911 62.3183 174.962 61.832 175.404 61.4156C175.824 61.0207 176.269 61 176.367 61V65C176.827 65 177.545 64.894 178.146 64.3284C178.769 63.7414 178.911 62.999 178.911 62.488H174.911ZM176.367 61H174.287V65H176.367V61ZM174.287 61C174.314 61 174.431 61.0011 174.597 61.0465C174.763 61.0917 175.065 61.2053 175.349 61.4898L172.521 64.3182C173.178 64.9753 174.006 65 174.287 65V61ZM175.535 61.704C175.779 62.0299 175.839 62.3683 175.839 62.584H171.839C171.839 63.0557 171.963 63.6075 172.335 64.104L175.535 61.704ZM175.839 62.584V39.704H171.839V62.584H175.839ZM175.839 39.704C175.839 39.794 175.826 40.2347 175.454 40.6696C175.03 41.1635 174.491 41.256 174.223 41.256V37.256C173.699 37.256 172.968 37.4232 172.416 38.0664C171.916 38.6507 171.839 39.3154 171.839 39.704H175.839ZM174.223 41.256H183.151V37.256H174.223V41.256ZM183.151 41.256C185.422 41.256 186.888 41.7315 187.803 42.421L190.211 39.227C188.352 37.8258 185.915 37.256 183.151 37.256V41.256ZM187.831 42.4415C188.631 43.0238 189.119 43.8934 189.119 45.4H193.119C193.119 42.8533 192.199 40.6722 190.183 39.2065L187.831 42.4415ZM189.119 45.4C189.119 46.3615 188.934 47.0468 188.663 47.5402L192.167 49.4678C192.835 48.2545 193.119 46.8705 193.119 45.4H189.119ZM188.673 47.5214C188.338 48.1153 187.935 48.5576 187.47 48.8861L189.776 52.1539C190.762 51.4584 191.553 50.5567 192.157 49.4866L188.673 47.5214ZM187.479 48.8792C186.926 49.2648 186.382 49.5318 185.847 49.7L187.047 53.516C188.005 53.2148 188.912 52.7565 189.767 52.1608L187.479 48.8792ZM186.199 49.6234C185.785 49.6752 184.843 49.93 184.43 50.9612C184.096 51.7973 184.395 52.5231 184.491 52.7403L188.147 51.1157C188.158 51.1409 188.436 51.7174 188.144 52.4468C187.774 53.3714 186.938 53.5622 186.695 53.5926L186.199 49.6234ZM184.48 52.7152L188.96 63.1792L192.638 61.6048L188.158 51.1408L184.48 52.7152ZM182.255 51.944C184.315 51.944 186.222 51.58 187.655 50.5375L185.303 47.3025C184.859 47.6253 183.949 47.944 182.255 47.944V51.944ZM187.638 50.5499C189.258 49.3982 189.919 47.6264 189.919 45.688H185.919C185.919 46.6936 185.62 47.0765 185.32 47.2901L187.638 50.5499ZM189.919 45.688C189.919 43.8531 189.354 42.1309 187.888 40.9583L185.39 44.0817C185.631 44.2745 185.919 44.6643 185.919 45.688H189.919ZM187.908 40.9739C186.58 39.8845 184.836 39.496 182.991 39.496V43.496C184.346 43.496 185.034 43.7902 185.37 44.0661L187.908 40.9739ZM182.991 39.496H177.359V43.496H182.991V39.496ZM177.359 39.496C177.002 39.496 176.366 39.5569 175.787 40.0114C175.117 40.538 174.911 41.2766 174.911 41.848H178.911C178.911 42.1847 178.78 42.7473 178.259 43.1566C177.83 43.4938 177.417 43.496 177.359 43.496V39.496ZM174.911 41.848V49.528H178.911V41.848H174.911ZM174.911 49.528C174.911 49.8356 174.953 50.4215 175.339 50.9784C175.816 51.6685 176.552 51.944 177.199 51.944V47.944C177.392 47.944 177.657 47.9794 177.941 48.116C178.234 48.2573 178.466 48.4679 178.627 48.7016C178.917 49.1199 178.911 49.4977 178.911 49.528H174.911ZM177.199 51.944H182.255V47.944H177.199V51.944ZM196.01 62.872L194.153 63.6148L194.251 63.8604L194.41 64.072L196.01 62.872ZM196.01 62.456L194.13 61.7715L194.095 61.8696L194.069 61.9709L196.01 62.456ZM204.298 39.704L202.459 38.9162L202.437 38.9672L202.418 39.0195L204.298 39.704ZM204.522 39.384L205.722 40.984L205.835 40.8987L205.936 40.7982L204.522 39.384ZM208.17 39.736L206.272 40.3685L206.28 40.3915L206.288 40.4144L208.17 39.736ZM216.362 62.456L218.259 61.8236L218.251 61.8005L218.243 61.7776L216.362 62.456ZM216.33 62.84L214.541 61.9456L214.503 62.02L214.473 62.0972L216.33 62.84ZM213.258 62.68L211.373 63.3502L211.386 63.3868L211.401 63.4228L213.258 62.68ZM211.05 56.472L212.934 55.8018L212.893 55.6868L212.838 55.5776L211.05 56.472ZM200.97 56.472L199.097 55.7698L199.093 55.7787L199.09 55.7877L200.97 56.472ZM198.698 62.712L196.818 62.0277L196.783 62.1257L196.757 62.2269L198.698 62.712ZM198.538 62.936L199.647 64.6001L199.693 64.5693L199.738 64.536L198.538 62.936ZM210.09 53.368L212.001 52.7798L211.986 52.7308L211.968 52.6827L210.09 53.368ZM206.25 42.84L208.128 42.1547L208.105 42.0903L208.077 42.0277L206.25 42.84ZM205.802 42.84L207.678 43.5317L207.689 43.5022L207.699 43.4725L205.802 42.84ZM201.898 53.432L203.718 54.2596L203.749 54.1927L203.774 54.1237L201.898 53.432ZM196.298 61C196.454 61 196.685 61.0261 196.942 61.1404C197.211 61.2598 197.44 61.4461 197.61 61.672L194.41 64.072C194.929 64.7643 195.682 65 196.298 65V61ZM197.866 62.1292C198.043 62.5706 197.958 62.9073 197.95 62.9411L194.069 61.9709C193.975 62.3461 193.891 62.96 194.153 63.6148L197.866 62.1292ZM197.889 63.1405L206.177 40.3885L202.418 39.0195L194.13 61.7715L197.889 63.1405ZM206.136 40.4918C206.126 40.5138 206.098 40.5761 206.04 40.6589C205.982 40.742 205.881 40.8647 205.722 40.984L203.321 37.784C202.846 38.1403 202.595 38.5998 202.459 38.9162L206.136 40.4918ZM205.936 40.7982C205.476 41.2581 204.974 41.256 204.938 41.256V37.256C204.517 37.256 203.738 37.3392 203.107 37.9698L205.936 40.7982ZM204.938 41.256H207.434V37.256H204.938V41.256ZM207.434 41.256C207.356 41.256 207.102 41.2398 206.813 41.0512C206.501 40.8479 206.339 40.5688 206.272 40.3685L210.067 39.1035C209.893 38.5832 209.555 38.0641 208.998 37.7008C208.464 37.3522 207.895 37.256 207.434 37.256V41.256ZM206.288 40.4144L214.48 63.1344L218.243 61.7776L210.051 39.0576L206.288 40.4144ZM214.464 63.0884C214.404 62.9087 214.374 62.7014 214.392 62.4819C214.41 62.265 214.472 62.0832 214.541 61.9456L218.118 63.7344C218.404 63.1639 218.48 62.4877 218.259 61.8236L214.464 63.0884ZM214.473 62.0972C214.614 61.7448 214.881 61.4193 215.254 61.2117C215.591 61.0245 215.893 61 216.042 61V65C216.339 65 216.764 64.9488 217.197 64.7083C217.666 64.4474 218.003 64.0419 218.186 63.5828L214.473 62.0972ZM216.042 61H213.77V65H216.042V61ZM213.77 61C213.915 61 214.201 61.0312 214.51 61.224C214.834 61.4268 215.023 61.7077 215.114 61.9372L211.401 63.4228C211.578 63.8656 211.894 64.3065 212.39 64.616C212.869 64.9154 213.368 65 213.77 65V61ZM215.142 62.0098L212.934 55.8018L209.165 57.1422L211.373 63.3502L215.142 62.0098ZM212.838 55.5776C212.749 55.3981 212.592 55.1224 212.336 54.8658L209.507 57.6942C209.414 57.6011 209.354 57.5187 209.321 57.4694C209.287 57.4184 209.268 57.3811 209.261 57.3664L212.838 55.5776ZM212.336 54.8658C211.967 54.4967 211.554 54.3525 211.311 54.2917C211.055 54.2279 210.826 54.216 210.666 54.216V58.216C210.633 58.216 210.51 58.2148 210.34 58.1723C210.183 58.1328 209.834 58.0206 209.507 57.6942L212.336 54.8658ZM210.666 54.216H201.354V58.216H210.666V54.216ZM201.354 54.216C200.961 54.216 200.47 54.3054 200.004 54.6159C199.53 54.9318 199.248 55.3663 199.097 55.7698L202.842 57.1742C202.755 57.407 202.569 57.7135 202.223 57.9441C201.885 58.1692 201.554 58.216 201.354 58.216V54.216ZM199.09 55.7877L196.818 62.0277L200.577 63.3963L202.849 57.1563L199.09 55.7877ZM196.757 62.2269C196.87 61.7775 197.136 61.4869 197.338 61.336L199.738 64.536C200.109 64.2571 200.483 63.8172 200.638 63.1971L196.757 62.2269ZM197.428 61.2719C197.684 61.1016 197.913 61.0438 198.017 61.0228C198.131 61.0001 198.205 61 198.218 61V65C198.45 65 199.066 64.9871 199.647 64.6001L197.428 61.2719ZM198.218 61H196.298V65H198.218V61ZM209.834 55.784C210.237 55.784 211.211 55.6744 211.793 54.7282C212.304 53.8981 212.089 53.0659 212.001 52.7798L208.178 53.9562C208.175 53.9475 207.961 53.3232 208.386 52.6318C208.883 51.8242 209.686 51.784 209.834 51.784V55.784ZM211.968 52.6827L208.128 42.1547L204.371 43.5253L208.211 54.0533L211.968 52.6827ZM208.077 42.0277C207.997 41.847 207.855 41.5637 207.616 41.2953C207.387 41.0372 206.845 40.552 205.994 40.552V44.552C205.228 44.552 204.771 44.1148 204.627 43.9527C204.542 43.8575 204.49 43.7765 204.465 43.7336C204.438 43.6883 204.425 43.6584 204.422 43.6523L208.077 42.0277ZM205.994 40.552C204.9 40.552 204.346 41.3458 204.233 41.5146C204.056 41.7813 203.957 42.0492 203.904 42.2075L207.699 43.4725C207.71 43.4388 207.675 43.5627 207.562 43.7334C207.503 43.8219 207.372 44.0002 207.146 44.17C206.903 44.3518 206.509 44.552 205.994 44.552V40.552ZM203.925 42.1483L200.021 52.7403L203.774 54.1237L207.678 43.5317L203.925 42.1483ZM200.077 52.6044C199.987 52.8029 199.589 53.6986 200.11 54.6537C200.698 55.7328 201.806 55.784 202.09 55.784V51.784C202.138 51.784 203.097 51.7766 203.621 52.7383C203.861 53.1774 203.864 53.5906 203.835 53.8267C203.807 54.0549 203.741 54.2087 203.718 54.2596L200.077 52.6044ZM202.09 55.784H209.834V51.784H202.09V55.784Z" fill="#FFAC1C" mask="url(#path-2-outside-1_602_25)"/>
</svg>
