<svg width="218" height="69" viewBox="0 0 218 69" fill="none" xmlns="http://www.w3.org/2000/svg">
<path d="M57.4738 62.5667L57.4803 62.5604L57.4867 62.5539C59.1623 60.8712 60 58.7812 60 56.3496V9.73008C60 7.29846 59.1623 5.20847 57.4867 3.52576L57.4801 3.51908L57.4733 3.51252C55.7517 1.84765 53.6806 1 51.3088 1H44.1304C41.6548 1 39.5435 1.86826 37.8675 3.60489C36.1446 5.27713 35.2684 7.33788 35.2684 9.73008V19.126C35.2684 19.6782 34.8206 20.126 34.2684 20.126H26.7316C26.1793 20.126 25.7316 19.6782 25.7316 19.126V9.73008C25.7316 7.29846 24.8939 5.20847 23.2184 3.52576C21.543 1.84324 19.462 1 17.0405 1H9.86207C7.33432 1 5.18948 1.86506 3.5071 3.61166C1.84076 5.2881 1 7.34709 1 9.73008V56.3496C1 58.7479 1.88065 60.813 3.61218 62.4875C5.33931 64.1577 7.44112 65 9.86207 65H17.2114C19.5725 65 21.6185 64.1862 23.2909 62.5667L23.2974 62.5604L23.3038 62.5539C24.9794 60.8712 25.8171 58.7812 25.8171 56.3496V44.8021C25.8171 44.2498 26.2648 43.8021 26.8171 43.8021H29.6027C32.0078 43.8021 34.0891 43.1656 35.7769 41.8339C37.5172 40.4607 38.3793 38.5677 38.3793 36.2673C38.3793 35.9352 38.287 35.5074 37.9331 35.1774C37.5924 34.8597 37.1749 34.7892 36.8666 34.7892C36.5582 34.7892 36.1407 34.8597 35.8 35.1774C35.4462 35.5074 35.3538 35.9352 35.3538 36.2673C35.3538 37.7397 34.8474 38.8181 33.8648 39.6177C32.7599 40.4172 31.3597 40.8458 29.6027 40.8458H24.4753C24.1099 40.8458 23.6497 40.9295 23.2805 41.2738C22.8982 41.6303 22.7916 42.098 22.7916 42.4833V56.3496C22.7916 58.0202 22.2542 59.356 21.1984 60.4301C20.1436 61.5032 18.8387 62.0437 17.2114 62.0437H9.86207C8.16841 62.0437 6.80013 61.4962 5.68839 60.4144C4.58127 59.3371 4.02548 58.0062 4.02548 56.3496V9.73008C4.02548 8.13448 4.57644 6.79267 5.70288 5.65089C6.81743 4.52116 8.18116 3.9563 9.86207 3.9563H17.0405C18.6515 3.9563 19.9872 4.51222 21.1064 5.64298C22.176 6.78014 22.7061 8.12443 22.7061 9.73008V21.6838C22.7061 22.0476 22.836 22.4733 23.2207 22.7723C23.5575 23.034 23.9461 23.0823 24.2189 23.0823H36.8666C37.1464 23.0823 37.5426 23.0184 37.869 22.714C38.2086 22.3973 38.2939 21.9894 38.2939 21.6838V9.73008C38.2939 8.13448 38.8448 6.79267 39.9712 5.65089C41.0858 4.52116 42.4495 3.9563 44.1304 3.9563H51.3088C52.9199 3.9563 54.2555 4.51222 55.3748 5.64299C56.4444 6.78015 56.9745 8.12444 56.9745 9.73008V56.3496C56.9745 58.0161 56.4398 59.3494 55.3891 60.4222C54.2728 61.5047 52.9327 62.0437 51.3088 62.0437H43.9595C42.2659 62.0437 40.8976 61.4962 39.7858 60.4144C38.6787 59.3371 38.1229 58.0062 38.1229 56.3496V45.4319C38.1229 45.0998 38.0306 44.6719 37.6768 44.3419C37.3361 44.0242 36.9186 43.9537 36.6102 43.9537C36.3018 43.9537 35.8843 44.0242 35.5436 44.3419C35.1898 44.6719 35.0974 45.0998 35.0974 45.4319V56.3496C35.0974 58.7934 35.9727 60.8874 37.7096 62.5672C39.3927 64.1968 41.5004 65 43.9595 65H51.3088C53.7191 65 55.7959 64.1915 57.4738 62.5667Z" fill="#FFAC1C" stroke="#FFAC1C" stroke-width="2"/>
<mask id="path-2-outside-1_602_26" maskUnits="userSpaceOnUse" x="64" y="37" width="155" height="30" fill="black">
<rect fill="white" x="64" y="37" width="155" height="30"/>
<path d="M69.6445 52.896C69.4738 52.896 69.3885 52.9813 69.3885 53.152V63.52C69.3885 63.84 69.2072 64 68.8445 64H66.7645C66.5938 64 66.4765 63.968 66.4125 63.904C66.3485 63.8187 66.3165 63.7013 66.3165 63.552V40.704C66.3165 40.4053 66.4445 40.256 66.7005 40.256H69.0045C69.2605 40.256 69.3885 40.3947 69.3885 40.672V50.08C69.3885 50.336 69.5058 50.464 69.7405 50.464H80.2365C80.4498 50.464 80.5565 50.336 80.5565 50.08V40.64C80.5565 40.384 80.6738 40.256 80.9085 40.256H83.2445C83.5005 40.256 83.6285 40.4053 83.6285 40.704V63.552C83.6285 63.7013 83.5965 63.8187 83.5325 63.904C83.4685 63.968 83.3512 64 83.1805 64H81.1005C80.7378 64 80.5565 63.84 80.5565 63.52V53.184C80.5565 52.992 80.4605 52.896 80.2685 52.896H69.6445ZM101.208 64.32C99.1171 64.32 97.3038 63.8507 95.7678 62.912C94.2531 61.9733 93.0904 60.608 92.2798 58.816C91.4691 57.0027 91.0638 54.8053 91.0638 52.224C91.0638 49.6213 91.4798 47.4027 92.3118 45.568C93.1438 43.7333 94.3171 42.336 95.8318 41.376C97.3464 40.416 99.1491 39.936 101.24 39.936C103.33 39.936 105.122 40.416 106.616 41.376C108.13 42.336 109.293 43.7227 110.104 45.536C110.936 47.3493 111.352 49.568 111.352 52.192C111.352 54.7733 110.946 56.9707 110.136 58.784C109.325 60.576 108.152 61.952 106.616 62.912C105.101 63.8507 103.298 64.32 101.208 64.32ZM101.272 61.984C103.576 61.984 105.293 61.1947 106.424 59.616C107.576 58.016 108.152 55.552 108.152 52.224C108.152 48.832 107.565 46.3253 106.392 44.704C105.24 43.0827 103.522 42.272 101.24 42.272C98.9358 42.272 97.1971 43.0933 96.0238 44.736C94.8504 46.3573 94.2638 48.8533 94.2638 52.224C94.2638 55.5307 94.8504 57.984 96.0238 59.584C97.1971 61.184 98.9464 61.984 101.272 61.984ZM119.213 64C118.915 64 118.765 63.84 118.765 63.52V40.704C118.765 40.4053 118.893 40.256 119.149 40.256H122.221C122.392 40.256 122.509 40.2773 122.573 40.32C122.659 40.3627 122.723 40.4587 122.765 40.608L129.869 58.944C129.955 59.136 130.04 59.232 130.125 59.232C130.211 59.2107 130.296 59.104 130.381 58.912L137.485 40.672C137.571 40.3947 137.731 40.256 137.965 40.256H141.197C141.432 40.256 141.549 40.3947 141.549 40.672V63.52C141.549 63.84 141.389 64 141.069 64H138.957C138.787 64 138.659 63.968 138.573 63.904C138.509 63.84 138.477 63.7333 138.477 63.584V45.28C138.477 45.1733 138.456 45.1307 138.413 45.152C138.371 45.152 138.339 45.1947 138.317 45.28L131.277 63.584C131.171 63.8613 130.968 64 130.669 64H129.133C128.792 64 128.579 63.872 128.493 63.616L121.549 45.472C121.507 45.3653 121.464 45.3227 121.421 45.344C121.4 45.344 121.389 45.3867 121.389 45.472V63.584C121.389 63.7333 121.357 63.84 121.293 63.904C121.229 63.968 121.112 64 120.941 64H119.213ZM166.869 40.256C167.019 40.256 167.115 40.2987 167.157 40.384C167.221 40.4693 167.211 40.576 167.125 40.704L159.509 53.44C159.424 53.568 159.371 53.696 159.349 53.824C159.328 53.952 159.317 54.176 159.317 54.496V63.456C159.317 63.8187 159.115 64 158.709 64H156.789C156.576 64 156.437 63.9573 156.373 63.872C156.309 63.7867 156.277 63.6693 156.277 63.52V54.624C156.277 54.4107 156.256 54.2507 156.213 54.144C156.171 54.0373 156.107 53.9093 156.021 53.76L148.309 40.768C148.224 40.6187 148.203 40.5013 148.245 40.416C148.309 40.3093 148.448 40.256 148.661 40.256H150.965C151.157 40.256 151.296 40.288 151.381 40.352C151.467 40.3947 151.552 40.4907 151.637 40.64L157.589 50.88C157.717 51.1147 157.835 51.2427 157.941 51.264C158.048 51.264 158.165 51.1573 158.293 50.944L164.213 40.64C164.299 40.4693 164.384 40.3627 164.469 40.32C164.555 40.2773 164.693 40.256 164.885 40.256H166.869ZM190.799 63.392C190.863 63.5413 190.852 63.68 190.767 63.808C190.703 63.936 190.596 64 190.447 64H188.111C187.876 64 187.706 63.872 187.599 63.616L183.471 53.536C183.364 53.3013 183.108 53.184 182.703 53.184H177.295C177.146 53.184 177.039 53.216 176.975 53.28C176.932 53.344 176.911 53.4293 176.911 53.536V63.488C176.911 63.8293 176.73 64 176.367 64H174.287C174.116 64 173.999 63.968 173.935 63.904C173.871 63.8187 173.839 63.712 173.839 63.584V40.704C173.839 40.4053 173.967 40.256 174.223 40.256H183.151C185.668 40.256 187.62 40.7787 189.007 41.824C190.415 42.848 191.119 44.3733 191.119 46.4C191.119 47.616 190.884 48.6507 190.415 49.504C189.946 50.336 189.348 51.008 188.623 51.52C187.919 52.0107 187.194 52.3733 186.447 52.608C186.276 52.6293 186.234 52.736 186.319 52.928L190.799 63.392ZM182.255 50.944C184.132 50.944 185.54 50.6027 186.479 49.92C187.439 49.2373 187.919 48.16 187.919 46.688C187.919 45.2587 187.492 44.2027 186.639 43.52C185.807 42.8373 184.591 42.496 182.991 42.496H177.359C177.06 42.496 176.911 42.6133 176.911 42.848V50.528C176.911 50.8053 177.007 50.944 177.199 50.944H182.255ZM196.298 64C196.17 64 196.074 63.9573 196.01 63.872C195.967 63.7653 195.967 63.6267 196.01 63.456L204.298 40.704C204.362 40.5547 204.436 40.448 204.522 40.384C204.607 40.2987 204.746 40.256 204.938 40.256H207.434C207.818 40.256 208.063 40.416 208.17 40.736L216.362 63.456C216.404 63.584 216.394 63.712 216.33 63.84C216.287 63.9467 216.191 64 216.042 64H213.77C213.514 64 213.343 63.8933 213.258 63.68L211.05 57.472C211.007 57.3867 210.964 57.3227 210.922 57.28C210.879 57.2373 210.794 57.216 210.666 57.216H201.354C201.162 57.216 201.034 57.3013 200.97 57.472L198.698 63.712C198.676 63.7973 198.623 63.872 198.538 63.936C198.474 63.9787 198.367 64 198.218 64H196.298ZM209.834 54.784C210.09 54.784 210.175 54.6453 210.09 54.368L206.25 43.84C206.164 43.648 206.079 43.552 205.994 43.552C205.93 43.552 205.866 43.648 205.802 43.84L201.898 54.432C201.791 54.6667 201.855 54.784 202.09 54.784H209.834Z"/>
</mask>
<path d="M69.6445 52.896C69.4738 52.896 69.3885 52.9813 69.3885 53.152V63.52C69.3885 63.84 69.2072 64 68.8445 64H66.7645C66.5938 64 66.4765 63.968 66.4125 63.904C66.3485 63.8187 66.3165 63.7013 66.3165 63.552V40.704C66.3165 40.4053 66.4445 40.256 66.7005 40.256H69.0045C69.2605 40.256 69.3885 40.3947 69.3885 40.672V50.08C69.3885 50.336 69.5058 50.464 69.7405 50.464H80.2365C80.4498 50.464 80.5565 50.336 80.5565 50.08V40.64C80.5565 40.384 80.6738 40.256 80.9085 40.256H83.2445C83.5005 40.256 83.6285 40.4053 83.6285 40.704V63.552C83.6285 63.7013 83.5965 63.8187 83.5325 63.904C83.4685 63.968 83.3512 64 83.1805 64H81.1005C80.7378 64 80.5565 63.84 80.5565 63.52V53.184C80.5565 52.992 80.4605 52.896 80.2685 52.896H69.6445ZM101.208 64.32C99.1171 64.32 97.3038 63.8507 95.7678 62.912C94.2531 61.9733 93.0904 60.608 92.2798 58.816C91.4691 57.0027 91.0638 54.8053 91.0638 52.224C91.0638 49.6213 91.4798 47.4027 92.3118 45.568C93.1438 43.7333 94.3171 42.336 95.8318 41.376C97.3464 40.416 99.1491 39.936 101.24 39.936C103.33 39.936 105.122 40.416 106.616 41.376C108.13 42.336 109.293 43.7227 110.104 45.536C110.936 47.3493 111.352 49.568 111.352 52.192C111.352 54.7733 110.946 56.9707 110.136 58.784C109.325 60.576 108.152 61.952 106.616 62.912C105.101 63.8507 103.298 64.32 101.208 64.32ZM101.272 61.984C103.576 61.984 105.293 61.1947 106.424 59.616C107.576 58.016 108.152 55.552 108.152 52.224C108.152 48.832 107.565 46.3253 106.392 44.704C105.24 43.0827 103.522 42.272 101.24 42.272C98.9358 42.272 97.1971 43.0933 96.0238 44.736C94.8504 46.3573 94.2638 48.8533 94.2638 52.224C94.2638 55.5307 94.8504 57.984 96.0238 59.584C97.1971 61.184 98.9464 61.984 101.272 61.984ZM119.213 64C118.915 64 118.765 63.84 118.765 63.52V40.704C118.765 40.4053 118.893 40.256 119.149 40.256H122.221C122.392 40.256 122.509 40.2773 122.573 40.32C122.659 40.3627 122.723 40.4587 122.765 40.608L129.869 58.944C129.955 59.136 130.04 59.232 130.125 59.232C130.211 59.2107 130.296 59.104 130.381 58.912L137.485 40.672C137.571 40.3947 137.731 40.256 137.965 40.256H141.197C141.432 40.256 141.549 40.3947 141.549 40.672V63.52C141.549 63.84 141.389 64 141.069 64H138.957C138.787 64 138.659 63.968 138.573 63.904C138.509 63.84 138.477 63.7333 138.477 63.584V45.28C138.477 45.1733 138.456 45.1307 138.413 45.152C138.371 45.152 138.339 45.1947 138.317 45.28L131.277 63.584C131.171 63.8613 130.968 64 130.669 64H129.133C128.792 64 128.579 63.872 128.493 63.616L121.549 45.472C121.507 45.3653 121.464 45.3227 121.421 45.344C121.4 45.344 121.389 45.3867 121.389 45.472V63.584C121.389 63.7333 121.357 63.84 121.293 63.904C121.229 63.968 121.112 64 120.941 64H119.213ZM166.869 40.256C167.019 40.256 167.115 40.2987 167.157 40.384C167.221 40.4693 167.211 40.576 167.125 40.704L159.509 53.44C159.424 53.568 159.371 53.696 159.349 53.824C159.328 53.952 159.317 54.176 159.317 54.496V63.456C159.317 63.8187 159.115 64 158.709 64H156.789C156.576 64 156.437 63.9573 156.373 63.872C156.309 63.7867 156.277 63.6693 156.277 63.52V54.624C156.277 54.4107 156.256 54.2507 156.213 54.144C156.171 54.0373 156.107 53.9093 156.021 53.76L148.309 40.768C148.224 40.6187 148.203 40.5013 148.245 40.416C148.309 40.3093 148.448 40.256 148.661 40.256H150.965C151.157 40.256 151.296 40.288 151.381 40.352C151.467 40.3947 151.552 40.4907 151.637 40.64L157.589 50.88C157.717 51.1147 157.835 51.2427 157.941 51.264C158.048 51.264 158.165 51.1573 158.293 50.944L164.213 40.64C164.299 40.4693 164.384 40.3627 164.469 40.32C164.555 40.2773 164.693 40.256 164.885 40.256H166.869ZM190.799 63.392C190.863 63.5413 190.852 63.68 190.767 63.808C190.703 63.936 190.596 64 190.447 64H188.111C187.876 64 187.706 63.872 187.599 63.616L183.471 53.536C183.364 53.3013 183.108 53.184 182.703 53.184H177.295C177.146 53.184 177.039 53.216 176.975 53.28C176.932 53.344 176.911 53.4293 176.911 53.536V63.488C176.911 63.8293 176.73 64 176.367 64H174.287C174.116 64 173.999 63.968 173.935 63.904C173.871 63.8187 173.839 63.712 173.839 63.584V40.704C173.839 40.4053 173.967 40.256 174.223 40.256H183.151C185.668 40.256 187.62 40.7787 189.007 41.824C190.415 42.848 191.119 44.3733 191.119 46.4C191.119 47.616 190.884 48.6507 190.415 49.504C189.946 50.336 189.348 51.008 188.623 51.52C187.919 52.0107 187.194 52.3733 186.447 52.608C186.276 52.6293 186.234 52.736 186.319 52.928L190.799 63.392ZM182.255 50.944C184.132 50.944 185.54 50.6027 186.479 49.92C187.439 49.2373 187.919 48.16 187.919 46.688C187.919 45.2587 187.492 44.2027 186.639 43.52C185.807 42.8373 184.591 42.496 182.991 42.496H177.359C177.06 42.496 176.911 42.6133 176.911 42.848V50.528C176.911 50.8053 177.007 50.944 177.199 50.944H182.255ZM196.298 64C196.17 64 196.074 63.9573 196.01 63.872C195.967 63.7653 195.967 63.6267 196.01 63.456L204.298 40.704C204.362 40.5547 204.436 40.448 204.522 40.384C204.607 40.2987 204.746 40.256 204.938 40.256H207.434C207.818 40.256 208.063 40.416 208.17 40.736L216.362 63.456C216.404 63.584 216.394 63.712 216.33 63.84C216.287 63.9467 216.191 64 216.042 64H213.77C213.514 64 213.343 63.8933 213.258 63.68L211.05 57.472C211.007 57.3867 210.964 57.3227 210.922 57.28C210.879 57.2373 210.794 57.216 210.666 57.216H201.354C201.162 57.216 201.034 57.3013 200.97 57.472L198.698 63.712C198.676 63.7973 198.623 63.872 198.538 63.936C198.474 63.9787 198.367 64 198.218 64H196.298ZM209.834 54.784C210.09 54.784 210.175 54.6453 210.09 54.368L206.25 43.84C206.164 43.648 206.079 43.552 205.994 43.552C205.93 43.552 205.866 43.648 205.802 43.84L201.898 54.432C201.791 54.6667 201.855 54.784 202.09 54.784H209.834Z" fill="white"/>
<path d="M66.4125 63.904L64.8125 65.104L64.8978 65.2177L64.9983 65.3182L66.4125 63.904ZM83.5325 63.904L84.9467 65.3182L85.0472 65.2177L85.1325 65.104L83.5325 63.904ZM69.6445 50.896C69.2509 50.896 68.5883 50.9958 68.0383 51.5458C67.4883 52.0958 67.3885 52.7584 67.3885 53.152H71.3885C71.3885 53.375 71.3314 53.9095 70.8667 54.3742C70.402 54.8389 69.8675 54.896 69.6445 54.896V50.896ZM67.3885 53.152V63.52H71.3885V53.152H67.3885ZM67.3885 63.52C67.3885 63.3022 67.4617 62.7928 67.9293 62.3803C68.349 62.0099 68.7748 62 68.8445 62V66C69.2768 66 69.9746 65.9101 70.5757 65.3797C71.2246 64.8072 71.3885 64.0578 71.3885 63.52H67.3885ZM68.8445 62H66.7645V66H68.8445V62ZM66.7645 62C66.7914 62 66.9085 62.0011 67.0747 62.0465C67.2407 62.0917 67.5422 62.2053 67.8267 62.4898L64.9983 65.3182C65.6554 65.9753 66.483 66 66.7645 66V62ZM68.0125 62.704C68.2939 63.0792 68.3165 63.4375 68.3165 63.552H64.3165C64.3165 63.9652 64.4031 64.5581 64.8125 65.104L68.0125 62.704ZM68.3165 63.552V40.704H64.3165V63.552H68.3165ZM68.3165 40.704C68.3165 40.794 68.3038 41.2347 67.931 41.6696C67.5077 42.1635 66.9682 42.256 66.7005 42.256V38.256C66.1768 38.256 65.4453 38.4232 64.894 39.0664C64.3932 39.6507 64.3165 40.3154 64.3165 40.704H68.3165ZM66.7005 42.256H69.0045V38.256H66.7005V42.256ZM69.0045 42.256C68.7813 42.256 68.2582 42.1881 67.8229 41.7166C67.4155 41.2753 67.3885 40.8037 67.3885 40.672H71.3885C71.3885 40.263 71.2975 39.5834 70.7621 39.0034C70.1988 38.3932 69.4837 38.256 69.0045 38.256V42.256ZM67.3885 40.672V50.08H71.3885V40.672H67.3885ZM67.3885 50.08C67.3885 50.4753 67.4754 51.1448 68.0022 51.7194C68.5592 52.3271 69.268 52.464 69.7405 52.464V48.464C69.9784 48.464 70.5111 48.5369 70.9508 49.0166C71.3603 49.4632 71.3885 49.9407 71.3885 50.08H67.3885ZM69.7405 52.464H80.2365V48.464H69.7405V52.464ZM80.2365 52.464C80.757 52.464 81.4779 52.2904 82.0129 51.6484C82.4898 51.0762 82.5565 50.4365 82.5565 50.08H78.5565C78.5565 49.9795 78.5699 49.5318 78.9401 49.0876C79.3684 48.5736 79.9293 48.464 80.2365 48.464V52.464ZM82.5565 50.08V40.64H78.5565V50.08H82.5565ZM82.5565 40.64C82.5565 40.7793 82.5283 41.2568 82.1188 41.7034C81.6792 42.1831 81.1464 42.256 80.9085 42.256V38.256C80.436 38.256 79.7272 38.3929 79.1702 39.0006C78.6434 39.5752 78.5565 40.2447 78.5565 40.64H82.5565ZM80.9085 42.256H83.2445V38.256H80.9085V42.256ZM83.2445 42.256C82.9768 42.256 82.4373 42.1635 82.014 41.6696C81.6412 41.2347 81.6285 40.794 81.6285 40.704H85.6285C85.6285 40.3154 85.5518 39.6507 85.051 39.0664C84.4997 38.4232 83.7682 38.256 83.2445 38.256V42.256ZM81.6285 40.704V63.552H85.6285V40.704H81.6285ZM81.6285 63.552C81.6285 63.4375 81.6511 63.0792 81.9325 62.704L85.1325 65.104C85.5419 64.5581 85.6285 63.9652 85.6285 63.552H81.6285ZM82.1183 62.4898C82.4028 62.2053 82.7043 62.0917 82.8703 62.0465C83.0365 62.0011 83.1536 62 83.1805 62V66C83.462 66 84.2896 65.9753 84.9467 65.3182L82.1183 62.4898ZM83.1805 62H81.1005V66H83.1805V62ZM81.1005 62C81.1702 62 81.596 62.0099 82.0157 62.3803C82.4833 62.7928 82.5565 63.3022 82.5565 63.52H78.5565C78.5565 64.0578 78.7204 64.8072 79.3693 65.3797C79.9704 65.9101 80.6682 66 81.1005 66V62ZM82.5565 63.52V53.184H78.5565V63.52H82.5565ZM82.5565 53.184C82.5565 52.7797 82.4541 52.1091 81.8987 51.5538C81.3434 50.9984 80.6728 50.896 80.2685 50.896V54.896C80.0562 54.896 79.5297 54.8416 79.0703 54.3822C78.6109 53.9229 78.5565 53.3963 78.5565 53.184H82.5565ZM80.2685 50.896H69.6445V54.896H80.2685V50.896ZM95.7678 62.912L94.7142 64.6121L94.7249 64.6186L95.7678 62.912ZM92.2798 58.816L90.4539 59.6323L90.4575 59.6403L92.2798 58.816ZM92.3118 45.568L90.4903 44.742L90.4903 44.742L92.3118 45.568ZM95.8318 41.376L96.9024 43.0653L96.9024 43.0653L95.8318 41.376ZM106.616 41.376L105.534 43.0584L105.545 43.0653L106.616 41.376ZM110.104 45.536L108.278 46.3523L108.282 46.3612L108.286 46.37L110.104 45.536ZM110.136 58.784L111.958 59.6083L111.962 59.6003L110.136 58.784ZM106.616 62.912L107.669 64.612L107.676 64.608L106.616 62.912ZM106.424 59.616L104.801 58.4474L104.798 58.4514L106.424 59.616ZM106.392 44.704L104.761 45.8624L104.766 45.8695L104.772 45.8765L106.392 44.704ZM96.0238 44.736L97.644 45.9086L97.6512 45.8985L96.0238 44.736ZM96.0238 59.584L97.6366 58.4013L97.6366 58.4013L96.0238 59.584ZM101.208 62.32C99.4247 62.32 97.9848 61.923 96.8107 61.2054L94.7249 64.6186C96.6227 65.7783 98.8094 66.32 101.208 66.32V62.32ZM96.8213 61.212C95.6788 60.504 94.7667 59.461 94.102 57.9917L90.4575 59.6403C91.4142 61.755 92.8274 63.4427 94.7142 64.612L96.8213 61.212ZM94.1056 57.9997C93.4386 56.5079 93.0638 54.6047 93.0638 52.224H89.0638C89.0638 55.0059 89.4995 57.4975 90.4539 59.6323L94.1056 57.9997ZM93.0638 52.224C93.0638 49.8264 93.4479 47.9052 94.1332 46.394L90.4903 44.742C89.5116 46.9002 89.0638 49.4163 89.0638 52.224H93.0638ZM94.1332 46.394C94.8249 44.8688 95.7563 43.7917 96.9024 43.0653L94.7611 39.6867C92.8779 40.8803 91.4626 42.5978 90.4903 44.742L94.1332 46.394ZM96.9024 43.0653C98.0468 42.34 99.4642 41.936 101.24 41.936V37.936C98.834 37.936 96.6461 38.492 94.7611 39.6867L96.9024 43.0653ZM101.24 41.936C103.016 41.936 104.417 42.3403 105.534 43.0584L107.697 39.6936C105.828 38.4917 103.645 37.936 101.24 37.936V41.936ZM105.545 43.0653C106.692 43.7925 107.61 44.8577 108.278 46.3523L111.93 44.7197C110.976 42.5876 109.568 40.8795 107.686 39.6867L105.545 43.0653ZM108.286 46.37C108.966 47.853 109.352 49.7692 109.352 52.192H113.352C113.352 49.3668 112.905 46.8457 111.922 44.702L108.286 46.37ZM109.352 52.192C109.352 54.5727 108.977 56.4759 108.31 57.9677L111.962 59.6003C112.916 57.4655 113.352 54.9739 113.352 52.192H109.352ZM108.314 57.9597C107.651 59.4246 106.728 60.483 105.556 61.216L107.676 64.608C109.575 63.421 110.999 61.7274 111.958 59.6083L108.314 57.9597ZM105.562 61.212C104.415 61.9227 102.992 62.32 101.208 62.32V66.32C103.605 66.32 105.787 65.7786 107.669 64.612L105.562 61.212ZM101.272 63.984C104.084 63.984 106.47 62.9858 108.05 60.7806L104.798 58.4514C104.116 59.4036 103.068 59.984 101.272 59.984V63.984ZM108.047 60.7846C109.561 58.681 110.152 55.7114 110.152 52.224H106.152C106.152 55.3926 105.59 57.351 104.801 58.4474L108.047 60.7846ZM110.152 52.224C110.152 48.6742 109.551 45.6586 108.012 43.5315L104.772 45.8765C105.579 46.9921 106.152 48.9898 106.152 52.224H110.152ZM108.022 43.5456C106.435 41.3125 104.06 40.272 101.24 40.272V44.272C102.985 44.272 104.044 44.8528 104.761 45.8624L108.022 43.5456ZM101.24 40.272C98.395 40.272 96.0023 41.3251 94.3963 43.5735L97.6512 45.8985C98.3919 44.8615 99.4765 44.272 101.24 44.272V40.272ZM94.4035 43.5635C92.8653 45.689 92.2638 48.6922 92.2638 52.224H96.2638C96.2638 49.0144 96.8355 47.0257 97.644 45.9085L94.4035 43.5635ZM92.2638 52.224C92.2638 55.6986 92.8676 58.6622 94.4109 60.7667L97.6366 58.4013C96.8332 57.3058 96.2638 55.3627 96.2638 52.224H92.2638ZM94.4109 60.7667C96.0291 62.9733 98.4339 63.984 101.272 63.984V59.984C99.4589 59.984 98.3651 59.3947 97.6366 58.4013L94.4109 60.7667ZM122.573 40.32L121.464 41.9841L121.567 42.0532L121.679 42.1089L122.573 40.32ZM122.765 40.608L120.842 41.1574L120.867 41.2453L120.9 41.3305L122.765 40.608ZM129.869 58.944L128.004 59.6665L128.022 59.7119L128.042 59.7563L129.869 58.944ZM130.125 59.232V61.232H130.371L130.61 61.1723L130.125 59.232ZM130.381 58.912L132.209 59.7243L132.228 59.6815L132.245 59.6378L130.381 58.912ZM137.485 40.672L139.349 41.3978L139.375 41.3299L139.397 41.2602L137.485 40.672ZM138.573 63.904L137.159 65.3182L137.26 65.4187L137.373 65.504L138.573 63.904ZM138.413 45.152V47.152H138.885L139.308 46.9409L138.413 45.152ZM138.317 45.28L140.184 45.998L140.228 45.8838L140.258 45.7651L138.317 45.28ZM131.277 63.584L133.144 64.302L133.144 64.302L131.277 63.584ZM128.493 63.616L130.391 62.9835L130.377 62.942L130.361 62.9011L128.493 63.616ZM121.549 45.472L123.417 44.7571L123.412 44.7431L123.406 44.7292L121.549 45.472ZM121.421 45.344V47.344H121.893L122.316 47.1328L121.421 45.344ZM121.293 63.904L122.707 65.3182L122.707 65.3182L121.293 63.904ZM119.213 62C119.409 62 119.913 62.0589 120.339 62.5154C120.741 62.9458 120.765 63.4047 120.765 63.52H116.765C116.765 63.9553 116.864 64.6542 117.415 65.2446C117.99 65.8611 118.719 66 119.213 66V62ZM120.765 63.52V40.704H116.765V63.52H120.765ZM120.765 40.704C120.765 40.794 120.753 41.2347 120.38 41.6696C119.956 42.1635 119.417 42.256 119.149 42.256V38.256C118.626 38.256 117.894 38.4232 117.343 39.0664C116.842 39.6507 116.765 40.3154 116.765 40.704H120.765ZM119.149 42.256H122.221V38.256H119.149V42.256ZM122.221 42.256C122.233 42.256 122.177 42.2575 122.079 42.2397C122.002 42.2256 121.749 42.1744 121.464 41.9841L123.683 38.6559C123.333 38.423 122.99 38.3397 122.795 38.3043C122.58 38.2652 122.38 38.256 122.221 38.256V42.256ZM121.679 42.1089C121.023 41.7808 120.86 41.2195 120.842 41.1574L124.688 40.0586C124.585 39.6979 124.294 38.9445 123.468 38.5311L121.679 42.1089ZM120.9 41.3305L128.004 59.6665L131.734 58.2215L124.63 39.8855L120.9 41.3305ZM128.042 59.7563C128.122 59.937 128.264 60.2203 128.502 60.4887C128.732 60.7468 129.274 61.232 130.125 61.232V57.232C130.891 57.232 131.348 57.6692 131.492 57.8313C131.577 57.9265 131.628 58.0075 131.654 58.0504C131.681 58.0957 131.694 58.1256 131.697 58.1317L128.042 59.7563ZM130.61 61.1723C131.255 61.011 131.641 60.6031 131.815 60.3854C132.006 60.147 132.13 59.9025 132.209 59.7243L128.554 58.0997C128.554 58.0991 128.562 58.0799 128.581 58.0477C128.598 58.0169 128.634 57.9586 128.692 57.8866C128.78 57.7756 129.08 57.4317 129.64 57.2917L130.61 61.1723ZM132.245 59.6378L139.349 41.3978L135.622 39.9462L128.518 58.1862L132.245 59.6378ZM139.397 41.2602C139.369 41.3516 139.269 41.6204 138.979 41.8714C138.655 42.152 138.273 42.256 137.965 42.256V38.256C137.423 38.256 136.843 38.4293 136.359 38.8486C135.91 39.2382 135.687 39.715 135.574 40.0838L139.397 41.2602ZM137.965 42.256H141.197V38.256H137.965V42.256ZM141.197 42.256C140.911 42.256 140.361 42.1555 139.934 41.6519C139.562 41.2122 139.549 40.7676 139.549 40.672H143.549C143.549 40.299 143.477 39.6465 142.988 39.0681C142.445 38.4258 141.719 38.256 141.197 38.256V42.256ZM139.549 40.672V63.52H143.549V40.672H139.549ZM139.549 63.52C139.549 63.3717 139.588 62.8931 140.015 62.4658C140.442 62.0384 140.921 62 141.069 62V66C141.538 66 142.256 65.8816 142.843 65.2942C143.431 64.7069 143.549 63.9883 143.549 63.52H139.549ZM141.069 62H138.957V66H141.069V62ZM138.957 62C138.99 62 139.085 62.0024 139.218 62.0357C139.353 62.0695 139.559 62.143 139.773 62.304L137.373 65.504C137.957 65.9421 138.594 66 138.957 66V62ZM139.987 62.4898C140.238 62.7398 140.359 63.0097 140.417 63.2013C140.472 63.3856 140.477 63.5258 140.477 63.584H136.477C136.477 63.9364 136.539 64.6981 137.159 65.3182L139.987 62.4898ZM140.477 63.584V45.28H136.477V63.584H140.477ZM140.477 45.28C140.477 45.2091 140.489 44.7507 140.25 44.2736C140.107 43.9871 139.762 43.4802 139.074 43.2506C138.385 43.0211 137.805 43.2199 137.519 43.3631L139.308 46.9409C139.043 47.0734 138.481 47.2696 137.809 47.0454C137.136 46.8211 136.805 46.3275 136.672 46.0624C136.542 45.8025 136.506 45.5803 136.493 45.4948C136.478 45.3903 136.477 45.3126 136.477 45.28H140.477ZM138.413 43.152C137.606 43.152 137.046 43.5987 136.757 43.984C136.511 44.313 136.416 44.6401 136.377 44.7949L140.258 45.7651C140.24 45.8346 140.172 46.0977 139.957 46.384C139.7 46.7266 139.178 47.152 138.413 47.152V43.152ZM136.451 44.562L129.411 62.866L133.144 64.302L140.184 45.998L136.451 44.562ZM129.411 62.866C129.472 62.707 129.618 62.4494 129.916 62.2454C130.213 62.0419 130.504 62 130.669 62V66C131.133 66 131.675 65.8888 132.175 65.5466C132.676 65.2039 132.976 64.7383 133.144 64.302L129.411 62.866ZM130.669 62H129.133V66H130.669V62ZM129.133 62C129.196 62 129.447 62.0096 129.746 62.189C130.085 62.3922 130.296 62.7 130.391 62.9835L126.596 64.2485C126.776 64.788 127.136 65.2878 127.688 65.619C128.201 65.9264 128.73 66 129.133 66V62ZM130.361 62.9011L123.417 44.7571L119.681 46.1869L126.625 64.3309L130.361 62.9011ZM123.406 44.7292C123.359 44.6106 123.216 44.2623 122.899 43.9458C122.724 43.7704 122.408 43.5171 121.938 43.3997C121.424 43.2711 120.925 43.3558 120.527 43.5552L122.316 47.1328C121.938 47.3215 121.461 47.4036 120.968 47.2803C120.52 47.1682 120.225 46.9283 120.071 46.7742C119.797 46.5004 119.697 46.2267 119.692 46.2148L123.406 44.7292ZM121.421 43.344C120.63 43.344 120.084 43.7827 119.807 44.152C119.573 44.465 119.488 44.7681 119.457 44.8909C119.39 45.157 119.389 45.3884 119.389 45.472H123.389C123.389 45.4893 123.389 45.5283 123.384 45.5821C123.38 45.6294 123.37 45.7313 123.338 45.8611C123.312 45.9626 123.234 46.2497 123.007 46.552C122.738 46.9106 122.202 47.344 121.421 47.344V43.344ZM119.389 45.472V63.584H123.389V45.472H119.389ZM119.389 63.584C119.389 63.5258 119.394 63.3856 119.45 63.2013C119.507 63.0097 119.629 62.7398 119.879 62.4898L122.707 65.3182C123.328 64.6981 123.389 63.9364 123.389 63.584H119.389ZM119.879 62.4898C120.164 62.2053 120.465 62.0917 120.631 62.0465C120.797 62.0011 120.914 62 120.941 62V66C121.223 66 122.05 65.9753 122.707 65.3182L119.879 62.4898ZM120.941 62H119.213V66H120.941V62ZM167.157 40.384L165.368 41.2784L165.449 41.4397L165.557 41.584L167.157 40.384ZM167.125 40.704L165.461 39.5946L165.434 39.6354L165.409 39.6775L167.125 40.704ZM159.509 53.44L161.173 54.5494L161.201 54.5086L161.226 54.4665L159.509 53.44ZM159.349 53.824L161.322 54.1528L161.322 54.1528L159.349 53.824ZM156.373 63.872L154.773 65.072L154.773 65.072L156.373 63.872ZM156.213 54.144L158.07 53.4012L158.07 53.4012L156.213 54.144ZM156.021 53.76L157.758 52.7677L157.75 52.7534L157.741 52.7391L156.021 53.76ZM148.309 40.768L146.573 41.7603L146.581 41.7746L146.589 41.7889L148.309 40.768ZM148.245 40.416L146.53 39.387L146.491 39.4529L146.456 39.5216L148.245 40.416ZM151.381 40.352L150.181 41.952L150.326 42.0602L150.487 42.1409L151.381 40.352ZM151.637 40.64L149.901 41.6323L149.904 41.6387L149.908 41.6451L151.637 40.64ZM157.589 50.88L159.345 49.9223L159.332 49.8984L159.318 49.8749L157.589 50.88ZM157.941 51.264L157.549 53.2252L157.743 53.264H157.941V51.264ZM158.293 50.944L160.008 51.973L160.018 51.9568L160.027 51.9403L158.293 50.944ZM164.213 40.64L165.947 41.6363L165.976 41.5862L166.002 41.5344L164.213 40.64ZM164.469 40.32L165.364 42.1089L165.364 42.1088L164.469 40.32ZM166.869 42.256C166.773 42.256 166.533 42.2453 166.241 42.1156C165.911 41.9689 165.576 41.6934 165.368 41.2784L168.946 39.4896C168.396 38.3898 167.307 38.256 166.869 38.256V42.256ZM165.557 41.584C165.287 41.2235 165.163 40.7716 165.207 40.329C165.245 39.946 165.396 39.6921 165.461 39.5946L168.789 41.8134C168.94 41.5879 169.138 41.2166 169.187 40.727C169.242 40.1777 169.092 39.6299 168.757 39.184L165.557 41.584ZM165.409 39.6775L157.793 52.4135L161.226 54.4665L168.842 41.7305L165.409 39.6775ZM157.845 52.3306C157.632 52.6509 157.452 53.0412 157.376 53.4952L161.322 54.1528C161.289 54.3508 161.216 54.4851 161.173 54.5494L157.845 52.3306ZM157.376 53.4952C157.325 53.8047 157.317 54.1792 157.317 54.496H161.317C161.317 54.3556 161.32 54.2533 161.323 54.1831C161.325 54.1486 161.326 54.1281 161.327 54.1191C161.328 54.1082 161.327 54.1219 161.322 54.1528L157.376 53.4952ZM157.317 54.496V63.456H161.317V54.496H157.317ZM157.317 63.456C157.317 63.268 157.38 62.7776 157.832 62.3735C158.241 62.0073 158.655 62 158.709 62V66C159.169 66 159.887 65.902 160.499 65.3545C161.153 64.769 161.317 64.0067 161.317 63.456H157.317ZM158.709 62H156.789V66H158.709V62ZM156.789 62C156.797 62 156.925 61.9986 157.113 62.0564C157.305 62.1154 157.675 62.2738 157.973 62.672L154.773 65.072C155.136 65.5555 155.607 65.7779 155.937 65.8796C156.264 65.9801 156.568 66 156.789 66V62ZM157.973 62.672C158.255 63.0472 158.277 63.4055 158.277 63.52H154.277C154.277 63.9332 154.364 64.5261 154.773 65.072L157.973 62.672ZM158.277 63.52V54.624H154.277V63.52H158.277ZM158.277 54.624C158.277 54.3363 158.257 53.8677 158.07 53.4012L154.356 54.8868C154.325 54.8085 154.307 54.744 154.296 54.7007C154.286 54.6568 154.281 54.6248 154.279 54.6083C154.275 54.578 154.277 54.5795 154.277 54.624H158.277ZM158.07 53.4012C157.981 53.1778 157.869 52.9621 157.758 52.7677L154.285 54.7523C154.313 54.801 154.332 54.8373 154.344 54.8624C154.357 54.8883 154.36 54.8956 154.356 54.8868L158.07 53.4012ZM157.741 52.7391L150.029 39.7471L146.589 41.7889L154.301 54.7809L157.741 52.7391ZM150.046 39.7757C150.07 39.8185 150.153 39.9708 150.197 40.2102C150.244 40.4693 150.25 40.8782 150.034 41.3104L146.456 39.5216C145.939 40.5565 146.415 41.4849 146.573 41.7603L150.046 39.7757ZM149.96 41.445C149.72 41.8447 149.379 42.0614 149.115 42.1627C148.879 42.2536 148.702 42.256 148.661 42.256V38.256C148.257 38.256 147.158 38.3412 146.53 39.387L149.96 41.445ZM148.661 42.256H150.965V38.256H148.661V42.256ZM150.965 42.256C150.959 42.256 150.883 42.2563 150.764 42.2288C150.647 42.202 150.423 42.1332 150.181 41.952L152.581 38.752C151.967 38.2912 151.286 38.256 150.965 38.256V42.256ZM150.487 42.1409C150.238 42.0164 150.086 41.865 150.014 41.7847C149.94 41.7012 149.905 41.6401 149.901 41.6323L153.374 39.6477C153.229 39.3944 152.899 38.8747 152.276 38.5631L150.487 42.1409ZM149.908 41.6451L155.86 51.8851L159.318 49.8749L153.366 39.6349L149.908 41.6451ZM155.833 51.8377C155.938 52.0297 156.089 52.2743 156.299 52.5034C156.486 52.7079 156.897 53.0948 157.549 53.2252L158.333 49.3028C158.879 49.4119 159.177 49.7241 159.248 49.8005C159.34 49.9017 159.368 49.965 159.345 49.9223L155.833 51.8377ZM157.941 53.264C158.687 53.264 159.203 52.8926 159.455 52.6639C159.716 52.4265 159.894 52.1635 160.008 51.973L156.578 49.915C156.565 49.9379 156.62 49.8348 156.764 49.7041C156.898 49.582 157.302 49.264 157.941 49.264V53.264ZM160.027 51.9403L165.947 41.6363L162.479 39.6437L156.559 49.9477L160.027 51.9403ZM166.002 41.5344C166.002 41.5356 165.995 41.5493 165.981 41.5722C165.967 41.5946 165.942 41.6332 165.903 41.6814C165.837 41.7636 165.667 41.9574 165.364 42.1089L163.575 38.5311C162.871 38.8831 162.541 39.5116 162.424 39.7456L166.002 41.5344ZM165.364 42.1088C165.155 42.213 164.99 42.2412 164.941 42.2487C164.881 42.258 164.857 42.256 164.885 42.256V38.256C164.636 38.256 164.099 38.269 163.575 38.5312L165.364 42.1088ZM164.885 42.256H166.869V38.256H164.885V42.256ZM190.799 63.392L188.96 64.1792L188.961 64.1798L190.799 63.392ZM190.767 63.808L189.103 62.6986L189.034 62.8022L188.978 62.9136L190.767 63.808ZM187.599 63.616L185.748 64.374L185.753 64.3852L187.599 63.616ZM183.471 53.536L185.322 52.778L185.307 52.7429L185.292 52.7084L183.471 53.536ZM176.975 53.28L175.561 51.8658L175.421 52.0058L175.311 52.1706L176.975 53.28ZM173.935 63.904L172.335 65.104L172.42 65.2177L172.521 65.3182L173.935 63.904ZM189.007 41.824L187.803 43.421L187.817 43.4314L187.831 43.4415L189.007 41.824ZM190.415 49.504L192.157 50.4866L192.162 50.4773L192.167 50.4678L190.415 49.504ZM188.623 51.52L189.767 53.1608L189.776 53.1539L188.623 51.52ZM186.447 52.608L186.695 54.5926L186.874 54.5701L187.047 54.516L186.447 52.608ZM186.319 52.928L188.158 52.1408L188.152 52.1282L188.147 52.1157L186.319 52.928ZM186.479 49.92L185.32 48.2901L185.311 48.2963L185.303 48.3025L186.479 49.92ZM186.639 43.52L185.37 45.0661L185.38 45.074L185.39 45.0817L186.639 43.52ZM188.961 64.1798C188.887 64.0079 188.822 63.7571 188.845 63.4546C188.869 63.147 188.976 62.8888 189.103 62.6986L192.431 64.9174C192.916 64.1902 192.95 63.3329 192.637 62.6042L188.961 64.1798ZM188.978 62.9136C189.09 62.6897 189.29 62.4288 189.61 62.237C189.925 62.0482 190.232 62 190.447 62V66C190.811 66 191.247 65.9198 191.668 65.667C192.094 65.4112 192.38 65.0543 192.556 64.7024L188.978 62.9136ZM190.447 62H188.111V66H190.447V62ZM188.111 62C188.381 62 188.711 62.0822 189.007 62.304C189.281 62.5094 189.401 62.7417 189.445 62.8468L185.753 64.3852C185.903 64.7463 186.162 65.1706 186.607 65.504C187.073 65.8538 187.607 66 188.111 66V62ZM189.45 62.858L185.322 52.778L181.62 54.294L185.748 64.374L189.45 62.858ZM185.292 52.7084C184.695 51.3955 183.393 51.184 182.703 51.184V55.184C182.735 55.184 182.588 55.1919 182.366 55.0901C182.1 54.9682 181.815 54.7263 181.65 54.3636L185.292 52.7084ZM182.703 51.184H177.295V55.184H182.703V51.184ZM177.295 51.184C176.943 51.184 176.181 51.2457 175.561 51.8658L178.389 54.6942C178.139 54.9443 177.869 55.0662 177.678 55.1237C177.493 55.1789 177.353 55.184 177.295 55.184V51.184ZM175.311 52.1706C174.98 52.6675 174.911 53.1821 174.911 53.536H178.911C178.911 53.6766 178.885 54.0205 178.639 54.3894L175.311 52.1706ZM174.911 53.536V63.488H178.911V53.536H174.911ZM174.911 63.488C174.911 63.3183 174.962 62.832 175.404 62.4156C175.824 62.0207 176.269 62 176.367 62V66C176.827 66 177.545 65.894 178.146 65.3284C178.769 64.7414 178.911 63.999 178.911 63.488H174.911ZM176.367 62H174.287V66H176.367V62ZM174.287 62C174.314 62 174.431 62.0011 174.597 62.0465C174.763 62.0917 175.065 62.2053 175.349 62.4898L172.521 65.3182C173.178 65.9753 174.006 66 174.287 66V62ZM175.535 62.704C175.779 63.0299 175.839 63.3683 175.839 63.584H171.839C171.839 64.0557 171.963 64.6075 172.335 65.104L175.535 62.704ZM175.839 63.584V40.704H171.839V63.584H175.839ZM175.839 40.704C175.839 40.794 175.826 41.2347 175.454 41.6696C175.03 42.1635 174.491 42.256 174.223 42.256V38.256C173.699 38.256 172.968 38.4232 172.416 39.0664C171.916 39.6507 171.839 40.3154 171.839 40.704H175.839ZM174.223 42.256H183.151V38.256H174.223V42.256ZM183.151 42.256C185.422 42.256 186.888 42.7315 187.803 43.421L190.211 40.227C188.352 38.8258 185.915 38.256 183.151 38.256V42.256ZM187.831 43.4415C188.631 44.0238 189.119 44.8934 189.119 46.4H193.119C193.119 43.8533 192.199 41.6722 190.183 40.2065L187.831 43.4415ZM189.119 46.4C189.119 47.3615 188.934 48.0468 188.663 48.5402L192.167 50.4678C192.835 49.2545 193.119 47.8705 193.119 46.4H189.119ZM188.673 48.5214C188.338 49.1153 187.935 49.5576 187.47 49.8861L189.776 53.1539C190.762 52.4584 191.553 51.5567 192.157 50.4866L188.673 48.5214ZM187.479 49.8792C186.926 50.2648 186.382 50.5318 185.847 50.7L187.047 54.516C188.005 54.2148 188.912 53.7565 189.767 53.1608L187.479 49.8792ZM186.199 50.6234C185.785 50.6752 184.843 50.93 184.43 51.9612C184.096 52.7973 184.395 53.5231 184.491 53.7403L188.147 52.1157C188.158 52.1409 188.436 52.7174 188.144 53.4468C187.774 54.3714 186.938 54.5622 186.695 54.5926L186.199 50.6234ZM184.48 53.7152L188.96 64.1792L192.638 62.6048L188.158 52.1408L184.48 53.7152ZM182.255 52.944C184.315 52.944 186.222 52.58 187.655 51.5375L185.303 48.3025C184.859 48.6253 183.949 48.944 182.255 48.944V52.944ZM187.638 51.5499C189.258 50.3982 189.919 48.6264 189.919 46.688H185.919C185.919 47.6936 185.62 48.0765 185.32 48.2901L187.638 51.5499ZM189.919 46.688C189.919 44.8531 189.354 43.1309 187.888 41.9583L185.39 45.0817C185.631 45.2745 185.919 45.6643 185.919 46.688H189.919ZM187.908 41.9739C186.58 40.8845 184.836 40.496 182.991 40.496V44.496C184.346 44.496 185.034 44.7902 185.37 45.0661L187.908 41.9739ZM182.991 40.496H177.359V44.496H182.991V40.496ZM177.359 40.496C177.002 40.496 176.366 40.5569 175.787 41.0114C175.117 41.538 174.911 42.2766 174.911 42.848H178.911C178.911 43.1847 178.78 43.7473 178.259 44.1566C177.83 44.4938 177.417 44.496 177.359 44.496V40.496ZM174.911 42.848V50.528H178.911V42.848H174.911ZM174.911 50.528C174.911 50.8356 174.953 51.4215 175.339 51.9784C175.816 52.6685 176.552 52.944 177.199 52.944V48.944C177.392 48.944 177.657 48.9794 177.941 49.116C178.234 49.2573 178.466 49.4679 178.627 49.7016C178.917 50.1199 178.911 50.4977 178.911 50.528H174.911ZM177.199 52.944H182.255V48.944H177.199V52.944ZM196.01 63.872L194.153 64.6148L194.251 64.8604L194.41 65.072L196.01 63.872ZM196.01 63.456L194.13 62.7715L194.095 62.8696L194.069 62.9709L196.01 63.456ZM204.298 40.704L202.459 39.9162L202.437 39.9672L202.418 40.0195L204.298 40.704ZM204.522 40.384L205.722 41.984L205.835 41.8987L205.936 41.7982L204.522 40.384ZM208.17 40.736L206.272 41.3685L206.28 41.3915L206.288 41.4144L208.17 40.736ZM216.362 63.456L218.259 62.8236L218.251 62.8005L218.243 62.7776L216.362 63.456ZM216.33 63.84L214.541 62.9456L214.503 63.02L214.473 63.0972L216.33 63.84ZM213.258 63.68L211.373 64.3502L211.386 64.3868L211.401 64.4228L213.258 63.68ZM211.05 57.472L212.934 56.8018L212.893 56.6868L212.838 56.5776L211.05 57.472ZM200.97 57.472L199.097 56.7698L199.093 56.7787L199.09 56.7877L200.97 57.472ZM198.698 63.712L196.818 63.0277L196.783 63.1257L196.757 63.2269L198.698 63.712ZM198.538 63.936L199.647 65.6001L199.693 65.5693L199.738 65.536L198.538 63.936ZM210.09 54.368L212.001 53.7798L211.986 53.7308L211.968 53.6827L210.09 54.368ZM206.25 43.84L208.128 43.1547L208.105 43.0903L208.077 43.0277L206.25 43.84ZM205.802 43.84L207.678 44.5317L207.689 44.5022L207.699 44.4725L205.802 43.84ZM201.898 54.432L203.718 55.2596L203.749 55.1927L203.774 55.1237L201.898 54.432ZM196.298 62C196.454 62 196.685 62.0261 196.942 62.1404C197.211 62.2598 197.44 62.4461 197.61 62.672L194.41 65.072C194.929 65.7643 195.682 66 196.298 66V62ZM197.866 63.1292C198.043 63.5706 197.958 63.9073 197.95 63.9411L194.069 62.9709C193.975 63.3461 193.891 63.96 194.153 64.6148L197.866 63.1292ZM197.889 64.1405L206.177 41.3885L202.418 40.0195L194.13 62.7715L197.889 64.1405ZM206.136 41.4918C206.126 41.5138 206.098 41.5761 206.04 41.6589C205.982 41.742 205.881 41.8647 205.722 41.984L203.321 38.784C202.846 39.1403 202.595 39.5998 202.459 39.9162L206.136 41.4918ZM205.936 41.7982C205.476 42.2581 204.974 42.256 204.938 42.256V38.256C204.517 38.256 203.738 38.3392 203.107 38.9698L205.936 41.7982ZM204.938 42.256H207.434V38.256H204.938V42.256ZM207.434 42.256C207.356 42.256 207.102 42.2398 206.813 42.0512C206.501 41.8479 206.339 41.5688 206.272 41.3685L210.067 40.1035C209.893 39.5832 209.555 39.0641 208.998 38.7008C208.464 38.3522 207.895 38.256 207.434 38.256V42.256ZM206.288 41.4144L214.48 64.1344L218.243 62.7776L210.051 40.0576L206.288 41.4144ZM214.464 64.0884C214.404 63.9087 214.374 63.7014 214.392 63.4819C214.41 63.265 214.472 63.0832 214.541 62.9456L218.118 64.7344C218.404 64.1639 218.48 63.4877 218.259 62.8236L214.464 64.0884ZM214.473 63.0972C214.614 62.7448 214.881 62.4193 215.254 62.2117C215.591 62.0245 215.893 62 216.042 62V66C216.339 66 216.764 65.9488 217.197 65.7083C217.666 65.4474 218.003 65.0419 218.186 64.5828L214.473 63.0972ZM216.042 62H213.77V66H216.042V62ZM213.77 62C213.915 62 214.201 62.0312 214.51 62.224C214.834 62.4268 215.023 62.7077 215.114 62.9372L211.401 64.4228C211.578 64.8656 211.894 65.3065 212.39 65.616C212.869 65.9154 213.368 66 213.77 66V62ZM215.142 63.0098L212.934 56.8018L209.165 58.1422L211.373 64.3502L215.142 63.0098ZM212.838 56.5776C212.749 56.3981 212.592 56.1224 212.336 55.8658L209.507 58.6942C209.414 58.6011 209.354 58.5187 209.321 58.4694C209.287 58.4184 209.268 58.3811 209.261 58.3664L212.838 56.5776ZM212.336 55.8658C211.967 55.4967 211.554 55.3525 211.311 55.2917C211.055 55.2279 210.826 55.216 210.666 55.216V59.216C210.633 59.216 210.51 59.2148 210.34 59.1723C210.183 59.1328 209.834 59.0206 209.507 58.6942L212.336 55.8658ZM210.666 55.216H201.354V59.216H210.666V55.216ZM201.354 55.216C200.961 55.216 200.47 55.3054 200.004 55.6159C199.53 55.9318 199.248 56.3663 199.097 56.7698L202.842 58.1742C202.755 58.407 202.569 58.7135 202.223 58.9441C201.885 59.1692 201.554 59.216 201.354 59.216V55.216ZM199.09 56.7877L196.818 63.0277L200.577 64.3963L202.849 58.1563L199.09 56.7877ZM196.757 63.2269C196.87 62.7775 197.136 62.4869 197.338 62.336L199.738 65.536C200.109 65.2571 200.483 64.8172 200.638 64.1971L196.757 63.2269ZM197.428 62.2719C197.684 62.1016 197.913 62.0438 198.017 62.0228C198.131 62.0001 198.205 62 198.218 62V66C198.45 66 199.066 65.9871 199.647 65.6001L197.428 62.2719ZM198.218 62H196.298V66H198.218V62ZM209.834 56.784C210.237 56.784 211.211 56.6744 211.793 55.7282C212.304 54.8981 212.089 54.0659 212.001 53.7798L208.178 54.9562C208.175 54.9475 207.961 54.3232 208.386 53.6318C208.883 52.8242 209.686 52.784 209.834 52.784V56.784ZM211.968 53.6827L208.128 43.1547L204.371 44.5253L208.211 55.0533L211.968 53.6827ZM208.077 43.0277C207.997 42.847 207.855 42.5637 207.616 42.2953C207.387 42.0372 206.845 41.552 205.994 41.552V45.552C205.228 45.552 204.771 45.1148 204.627 44.9527C204.542 44.8575 204.49 44.7765 204.465 44.7336C204.438 44.6883 204.425 44.6584 204.422 44.6523L208.077 43.0277ZM205.994 41.552C204.9 41.552 204.346 42.3458 204.233 42.5146C204.056 42.7813 203.957 43.0492 203.904 43.2075L207.699 44.4725C207.71 44.4388 207.675 44.5627 207.562 44.7334C207.503 44.8219 207.372 45.0002 207.146 45.17C206.903 45.3518 206.509 45.552 205.994 45.552V41.552ZM203.925 43.1483L200.021 53.7403L203.774 55.1237L207.678 44.5317L203.925 43.1483ZM200.077 53.6044C199.987 53.8029 199.589 54.6986 200.11 55.6537C200.698 56.7328 201.806 56.784 202.09 56.784V52.784C202.138 52.784 203.097 52.7766 203.621 53.7383C203.861 54.1774 203.864 54.5906 203.835 54.8267C203.807 55.0549 203.741 55.2087 203.718 55.2596L200.077 53.6044ZM202.09 56.784H209.834V52.784H202.09V56.784Z" fill="white" mask="url(#path-2-outside-1_602_26)"/>
</svg>
